<svg id="Layer_1" data-name="Layer 1" xmlns="http://www.w3.org/2000/svg" viewBox="0 0 168.31 46.19"><defs><style>.cls-1{fill:#f2662c;}.cls-2{fill:#231f20;}</style></defs><g id="Logo_on_Light" data-name="Logo on Light"><path class="cls-1" d="M.22,35c1.5,4.6,9.5,6.5,20.3,5.5-8.5.1-14.8-2.2-16.3-6.7s2.4-10.1,9.4-14.9C4.22,24.21-1.18,30.41.22,35ZM28,.61l4.6,8.3a44,44,0,0,1,29.3-1.3A49.59,49.59,0,0,0,32.42.11C31,.21,29.52.41,28,.61ZM56.42,15H34s6.4,2,3.9,7.2c-2.4,5-13.8,10.4-13.8,10.4h22.2a3,3,0,0,0,1.4-.5,2.89,2.89,0,0,0,1.1-1.1l3.7-6.4a1.6,1.6,0,0,0,.3-.8c0-.5-.3-.8-.9-.8h-8a3,3,0,0,0-1.4.5,2.89,2.89,0,0,0-1.1,1.1l-2.8,4.8a2.89,2.89,0,0,1-1.1,1.1,3,3,0,0,1-1.4.5c-.6,0-.89-.3-.9-.8a1.31,1.31,0,0,1,.2-.8l6.5-11.2a3.84,3.84,0,0,1,1.1-1.1,3,3,0,0,1,1.4-.5c.6,0,.9.3.9.8a3.09,3.09,0,0,1-.2.8L44,19.81a1.34,1.34,0,0,0-.2.8c0,.5.3.8.9.8h8a3,3,0,0,0,1.4-.5,2.89,2.89,0,0,0,1.1-1.1l1.9-3.2a1.61,1.61,0,0,0,.2-.8C57.32,15.21,57,15,56.42,15Z"/><path class="cls-2" d="M45.92,6.91c8.5-.1,14.9,2.3,16.3,6.8s-9.4,14.9-9.4,14.9,14.8-11.5,13.3-16.1S56.62,5.91,45.92,6.91ZM6.62,40.71a49.36,49.36,0,0,0,30,4.9,39.79,39.79,0,0,0,4.5-.9l-5.3-7.9A42.88,42.88,0,0,1,6.62,40.71Zm2.8-8.1h14.7c4.1-.5,11.4-5.4,13.8-10.4,2.6-5.3-3.8-7.2-3.8-7.2h-3.3c-.7,0-1-.3-1-.8a1.42,1.42,0,0,1,.2-.6,17.25,17.25,0,0,0,1.6-3.7,2,2,0,0,0-.2-.9L27,1.51a.55.55,0,0,0-.5-.3c-.4,0-.7.3-1,.9L8.72,31a2.05,2.05,0,0,0-.2.8C8.52,32.31,8.82,32.61,9.42,32.61Zm11.5-3.2,6.5-11.2a3.84,3.84,0,0,1,1.1-1.1,4.28,4.28,0,0,1,1.3-.5h.1c.6,0,.9.3.9.8a3.09,3.09,0,0,1-.2.8l-6.5,11.2a5,5,0,0,1-1.07,1.21,2.65,2.65,0,0,1-1.43.39.92.92,0,0,1-.94-.79A1.42,1.42,0,0,1,20.92,29.41Z"/><path class="cls-2" d="M76.23,14.91H81c.8,0,1.31.2,1.52.6A1.48,1.48,0,0,1,82.42,17a3.56,3.56,0,0,1-1.13,1.26,3.75,3.75,0,0,1-1.19.56,1.17,1.17,0,0,1,.93.74,1.9,1.9,0,0,1-.28,1.32A4.2,4.2,0,0,1,79.83,22a4.78,4.78,0,0,1-1.25.81,3.67,3.67,0,0,1-1.12.27c-.62.08-1,.12-1.21.12H71.82Zm.86,3.26h1.12a1.79,1.79,0,0,0,.94-.21,1.37,1.37,0,0,0,.55-.59c.13-.25.16-.43.07-.57s-.32-.2-.71-.2H77.93Zm-1.73,3.26h1.3a2,2,0,0,0,1.06-.23,1.6,1.6,0,0,0,.61-.63.58.58,0,0,0,0-.6c-.1-.14-.38-.22-.83-.22h-1.3Z"/><path class="cls-2" d="M97,14.91H99.6L97,19.86a7.56,7.56,0,0,1-1,1.39,6.32,6.32,0,0,1-1.33,1.14,5.42,5.42,0,0,1-1.39.69,6.43,6.43,0,0,1-2,.28,9.48,9.48,0,0,1-1.27-.09,2.11,2.11,0,0,1-1-.33,1.41,1.41,0,0,1-.5-.72,1.74,1.74,0,0,1,0-1,5.64,5.64,0,0,1,.51-1.4l2.63-4.95H94.2L91.51,20A1.2,1.2,0,0,0,91.32,21c.11.25.39.38.84.38a2.22,2.22,0,0,0,1.24-.37A2.89,2.89,0,0,0,94.34,20Z"/><path class="cls-2" d="M103.6,23.22,108,14.91h4.28a5,5,0,0,1,1.71.21.93.93,0,0,1,.61.75,2.22,2.22,0,0,1-.33,1.35,4.39,4.39,0,0,1-.93,1.19,4.57,4.57,0,0,1-1.24.81,4.32,4.32,0,0,1-1.08.33,1.4,1.4,0,0,1,.51.31,1.39,1.39,0,0,1,.18.44,2,2,0,0,1,.08.51l0,2.41h-2.9l0-2.54a1.12,1.12,0,0,0-.12-.64.67.67,0,0,0-.53-.19H108l-1.8,3.37Zm5.2-4.94h1.08a5.59,5.59,0,0,0,.74-.11,1.44,1.44,0,0,0,.56-.27,1.42,1.42,0,0,0,.41-.48c.15-.27.17-.47.08-.61s-.38-.22-.85-.22H109.7Z"/><path class="cls-2" d="M123.69,14.91h2.57l-1.67,3.14L129,14.91h3.41l-4.7,3.14.42,5.17h-3.16L125,19.8l-2.07,1.39-1.08,2h-2.56Z"/><path class="cls-2" d="M140,14.91h6.88l-1,1.78h-4.3L141,18h4L144,19.7h-4l-.87,1.64h4.43l-1,1.88h-7Z"/><path class="cls-2" d="M73.38,30.4l1.17.42a5.26,5.26,0,0,1-1,1,3.94,3.94,0,0,1-1.07.6,3.77,3.77,0,0,1-1.25.2A2.37,2.37,0,0,1,70,32.35a1,1,0,0,1-.46-.85A3,3,0,0,1,70,29.92a5.18,5.18,0,0,1,1.72-2A4.08,4.08,0,0,1,74,27.27a1.77,1.77,0,0,1,1.33.39,1.37,1.37,0,0,1,.18,1.21L74,29.18a1.15,1.15,0,0,0,0-.34.46.46,0,0,0-.18-.28.63.63,0,0,0-.38-.1,1.64,1.64,0,0,0-1.06.44,3.19,3.19,0,0,0-.76,1c-.3.57-.43,1-.36,1.18s.24.31.56.31a1.39,1.39,0,0,0,.82-.25A3.1,3.1,0,0,0,73.38,30.4Z"/><path class="cls-2" d="M82.32,31.66H80.51l-.7.85H78.18l4.68-5.15h1.73l-.8,5.15H82.12Zm.26-1.11L83,28.69l-1.55,1.86Z"/><path class="cls-2" d="M91.31,27.36H92.9l-2.06,3.88h2.48l-.67,1.27H88.57Z"/><path class="cls-2" d="M100.44,27.36H102L99.3,32.51H97.7Z"/><path class="cls-2" d="M107.46,27.36h3c.49,0,.81.12.94.37a.92.92,0,0,1-.08.91,2.26,2.26,0,0,1-.7.78,2.54,2.54,0,0,1-.74.35.72.72,0,0,1,.57.46,1.14,1.14,0,0,1-.17.81,2.63,2.63,0,0,1-.57.73,3,3,0,0,1-.78.5,2.24,2.24,0,0,1-.69.17,7.2,7.2,0,0,1-.76.07h-2.74Zm-.55,4h.81a1.35,1.35,0,0,0,.66-.14,1.09,1.09,0,0,0,.38-.39.36.36,0,0,0,0-.37c-.07-.1-.24-.14-.52-.14h-.8Zm1.08-2h.69a1.12,1.12,0,0,0,.59-.13,1,1,0,0,0,.34-.37.35.35,0,0,0,0-.35c-.05-.09-.2-.13-.44-.13h-.7Z"/><path class="cls-2" d="M114.6,32.51l2.74-5.15H120a3.36,3.36,0,0,1,1.06.12.59.59,0,0,1,.38.47,1.34,1.34,0,0,1-.21.84,2.76,2.76,0,0,1-.57.74,3.51,3.51,0,0,1-.77.5,3.81,3.81,0,0,1-.67.21.53.53,0,0,1,.42.46.86.86,0,0,1,0,.32l0,1.49h-1.8V30.94a.68.68,0,0,0-.08-.4.41.41,0,0,0-.32-.12h-.15l-1.11,2.09Zm3.23-3.07h.67a2.52,2.52,0,0,0,.46-.07.78.78,0,0,0,.35-.16.83.83,0,0,0,.26-.3c.08-.16.1-.29,0-.38s-.23-.13-.52-.13h-.7Z"/><path class="cls-2" d="M128.07,31.66h-1.81l-.7.85h-1.63l4.68-5.15h1.74l-.81,5.15h-1.66Zm.26-1.11.42-1.86-1.55,1.86Z"/><path class="cls-2" d="M136.2,27.36H141l-.67,1.27h-1.63l-2.06,3.88h-1.59l2.06-3.88h-1.62Z"/><path class="cls-2" d="M146.1,27.36h1.59L145,32.51h-1.59Z"/><path class="cls-2" d="M151.53,29.94a5.25,5.25,0,0,1,1.75-2,4.19,4.19,0,0,1,2.33-.7q1.29,0,1.62.69a2.24,2.24,0,0,1-.33,1.94,5.76,5.76,0,0,1-1.1,1.48,4.83,4.83,0,0,1-1.35.9,4.13,4.13,0,0,1-1.61.32,2.33,2.33,0,0,1-1.29-.28,1,1,0,0,1-.46-.88A2.91,2.91,0,0,1,151.53,29.94Zm1.59,0a1.67,1.67,0,0,0-.3,1.12c.07.23.27.35.6.35a1.6,1.6,0,0,0,1-.34,3.45,3.45,0,0,0,.91-1.2,1.55,1.55,0,0,0,.28-1.06.58.58,0,0,0-.62-.34,1.65,1.65,0,0,0-1,.35A3.25,3.25,0,0,0,153.12,29.94Z"/><path class="cls-2" d="M163.38,27.36h1.49l.43,2.85,1.51-2.85h1.5l-2.74,5.15h-1.5l-.42-2.83-1.51,2.83h-1.5Z"/></g></svg>