<?xml version="1.0" encoding="UTF-8"?>
<svg id="Layer_1" data-name="Layer 1" xmlns="http://www.w3.org/2000/svg" viewBox="0 0 400 172">
  <defs>
    <style>
      .cls-1 {
        fill: #847969;
      }

      .cls-1, .cls-2, .cls-3, .cls-4 {
        stroke-width: 0px;
      }

      .cls-2 {
        fill: #948a7c;
      }

      .cls-3 {
        fill: #000;
      }

      .cls-5 {
        fill: #847969;
        stroke: #f5f5f6;
      }

      .cls-4 {
        fill: #fff;
      }
    </style>
  </defs>
  <path class="cls-1" d="M371,82.73c0,39.56-78,71.64-174.23,71.64S22.54,122.29,22.54,82.73,100.54,11.09,196.77,11.09s174.23,32.07,174.23,71.64Z"/>
  <path class="cls-4" d="M356.67,82.15c0,33.7-71.59,61.02-159.9,61.02S36.87,115.85,36.87,82.15,108.46,21.14,196.77,21.14s159.9,27.32,159.9,61.01Z"/>
  <path class="cls-3" d="M352.68,82.21c0,31.64-69.81,57.28-155.91,57.28S40.86,113.84,40.86,82.21,110.66,24.93,196.76,24.93s155.91,25.64,155.91,57.28Z"/>
  <g>
    <path class="cls-2" d="M315.47,111.31c.12.07.3.1.44.15-.42.07-.62.06-.44-.15Z"/>
    <path class="cls-2" d="M321.39,111.91c-1.52.07-3.94.14-5.48-.45,1.35-.24,4.94-1.37,5.48.45Z"/>
    <path class="cls-2" d="M315.09,108.35l1.91.49c-1.08.53-.92-.34-1.91-.49Z"/>
    <polygon class="cls-2" points="315.84 110.04 315.76 110.72 314.73 110.09 315.84 110.04"/>
    <path class="cls-2" d="M218.78,114.97c.18.3.29.62.17,1.03l-.17-1.03Z"/>
    <path class="cls-2" d="M214.53,111.71c-.38-.13-.66-.19-.89-.22.27-.04.49.04.89.22Z"/>
    <path class="cls-2" d="M222.77,114.87l-.78.06c.25-.08.53-.12.78-.06Z"/>
    <path class="cls-2" d="M271.65,114.08c.72.51,1.39.96,1.91,1.28-1.42.49-1.52-.62-1.91-1.28Z"/>
    <path class="cls-2" d="M194.79,100.98l-.21.53c-.2-.25-.29-.49.21-.53Z"/>
    <path class="cls-2" d="M213.89,102.65c0,.31-.05.54-.14.7-.07-.05-.15-.08-.22-.14l.36-.57Z"/>
    <path class="cls-2" d="M225.92,113.91s.03-.04.04-.06l.62.37c-.34.09-.56-.02-.66-.31Z"/>
    <path class="cls-2" d="M188.65,99.98c-.26-.31-.51-.7-.72-1.21.59.27.84.81.72,1.21Z"/>
    <path class="cls-2" d="M213.52,111.48s0-.01,0-.02c.03,0,.08.02.12.03-.04,0-.07,0-.11,0Z"/>
    <path class="cls-2" d="M220.2,103.53c-.33-.11-.64-.19-.99-.32.43-.11.78.07.99.32Z"/>
    <path class="cls-2" d="M271.65,114.08c-.2-.14-.4-.28-.61-.43.29.02.47.19.61.43Z"/>
    <path class="cls-2" d="M310.4,112.69c-.61.03-.77-.35-.89-.74.34.17.65.4.89.74Z"/>
    <path class="cls-2" d="M89.12,112.57h-.24c.1-.03.18-.03.24,0Z"/>
    <path class="cls-2" d="M112.47,112.61c.11.11.23.25.33.42-.19.15-.32-.1-.33-.42Z"/>
    <path class="cls-2" d="M133.83,98.98c-1.54.79-3.16-.82-4.52-.86l.47.66-1.37-.53.03.96c-2.26-.4-5.03.66-5.89-.86l.3,1.53-2.42-1.17,1.4,1.01c-2.67.37-6.78-.72-7.36-.66l.26.56c-.43.31-.79-.05-1.26-.21l.39.84c-4.05-.05-5.07,1.93-9.61,1.24-1.22.26.7.25.74.73-.63.71-2.24.13-2.6-.23.43,1.32,2.3.83.92,1.97-1.06-.62.76,1.21-1.04,1.03l-.8-1.68c-.98.37-.12,1.36-1.71,1.3-1.85-.62,2.09-2.11-.83-2.15-1.46.22-2.8,4.2-5.67,3.47-2.35,1.07,1.47,2.58-1.9,2.38l2.22.97c-.51.52-.1,1.36-1.57,1.1-.51-.63-1.47-1.42-2.26-1.45,3.22,1.07-2.57,2.15.46,3.63h-1.08c.14.07.19.23.13.37l-1.42.22c.92.31,3.02.32,2.15,1.65l-2.04.47c.63.91-.09,1.36.1,2.11l6.18,1.4c-.28-.56-1.18-.86-.9-1.47,1.58-.62,1.39.94,2.85.04l-.72-.71c.14.28.36.36.04.48-.5.53-.77-.03-.81-.51.46-1,2.04-.47,2.54.17,1.95-.27.29-1.76.7-2.09,1.12,1.54,3.29-.28,4.55.38l-.85-.99c1.43-1.38,2.84-.37,3.74-.04l-.39-.84c2.1.07,3.01-2.87,4.75.11l-.25-.56c.85-.31,2.13-1.01,2.99-.13,0-.36.13-.82.48-.94.51,1.16,1.37.22,2.64-.05-.85-.27-.64-1.81-1.55-2.14,1.91-1.65,1.86,1.61,3.51,1.54.97-.8-.92-.84-1.17-1.39,2.57.76,5.16-3.65,6.85-.63l-1.07,1c1.03.64,1.58.62,1.45.34-.32.11-.44-.18-.56-.46,3.04-1.65,4.84,2.14,7.91,1.46-.24-.57-.68-.75-.71-1.23,1.42-.63,1.42,2.94,3.7,1.75l-.46-.66c.76-.4,1.34.56,1.23.75.04-2.6,4.86.12,6.46-3.27,1.13,1.43,4.35,2.52,5.34,1.75,1.43-1.54-1.24-1.73-.7-3.17,1.11,0,1.68,1.44,3.34.97.01,1.44-3.29,2.88-.2,3.75l.44-.77c-.32.1-.77.39-1.22.19-.89-.87.55-.96.76-1.35l3.33.49c.22,1.54-1.76,1.15-1.98,1.54,2.64-.29,5.85-2.49,8.29-1.43l-.22-.58c3.1,1.35,1.89-2.78,4.33-.25,1.33-.36-.44-1.64,1.56-1.71.56,0,.22.58.11.77,2.43.61,1.12-1.43,3.33.05l-.44-1.64c2.67,1.19,5.39,4.12,7.73,3.48-.1-1.26-1.54-1.18-2.08-2.15,3.07,2.34,7.54.56,10.41,1.87-.91,1.04,1.28,2.53-.61,3.35-.42-1.64-1.33-.61-2.32-.83,1.48,3.6,6.8-1.47,7.17,1.62l.48-1.24c.44.2,1.53,1.19.73,1.56l3.24-.67c-1.08-1-3.37-3.28-4.17-1.95-.86-1.37,1.35-.83.6-2.39,2.06,2.17,1.36-.83,3.56-.28-1.08,1.77,2.11,2.56,1.97,3.43.74-.31,2.32.61,2.92,1.25,1.28.23,4.29-1.11,6.32-.39-.75-.6-1.96-1.41-1.81-2.56.99.7,2.1.73,2.35-.6-3.48-2.61-1.3,3.04-4.48,1.3-.74-1.56-1.61-1.97-3.27-2.5.8-.84.48-1.24.84-2.29,1.91,3.33,5.33.55,7.94,2.27,1.09,1,.14,2.99,2.69,3.46l-2.25.89c2.46-.78.53.98,2.51,1.43l-.74-1.08c1.23-.15,1.67.05,2.31.85l-.96-1.67c.67-.17,1.89-.32,1.87.64.19-.39.26-.7.27-.97.12.27.42.46,1.2.44-.44-.21-.77-.12-.76-.6,2.92.52.77-1.72,2.58-1.48-.27-.39.27-.83.93-1-.16,2.55,3.44,3.05,4.33,4.51v-.04s2.4,1.14,2.4,1.14c-.49-.23.08-.9.82-1.14h-.12c.8-.35-.8-2.81,1.51-1.96l1.2.81c-.21-.1.01-.48.14-.67l1.24.75c2.05-2.29,3.61,1.51,5.95.44-.67.17-1.66-.05-1.2-.81.46-.27,1.11.04,1.45.43l-.11-.29,4.29,1.76c-.32-.87-2.75-1.04-1.62-1.97.7-1.14,1.89.15,2.67.27-.13.67-1.6,1.21-.16,1.63.2-.32,1.61-.96.98-1.47,1.46.75,3.61,1.25,4.91,2.51.44-.28-.21-.58-.43-.69l-.12.19c-.88-.41-.06-1.73-1.87-1.11-.06-2.22,2.57-.51,4.13-.75l-2.41-1.61c4.29-2.84,9.77.63,13.9.81-1.24.65-2.22-.04-2.14,1.69,2.54.92,2.21.52,4.77.96l-.21-.1c1.35-.84,3.11.93,4.02-.59-.55-.97-1.91.83-1.88-1.1l3.22.24c-.98-1.15-3.22-.24-4.45-.55-.89.07,1.77.32,1.31,1.57-3.01-.16-3.66-1.42-5.08-3.28-.86-1.37,1.35-1.32,1.91-1.31,1.86,2.05,4.63,3.09,7.64,2.24l1.68-1.43c1.44,1.36.75,3.95,3.43,3.68l-.77-1.07c.59-.4.98-.53,1.26-.51-1.13-.82-2.35-1.74-3.36-2.59,1.56-2.19,4.33,1.2,6.56,1.7-.11-.28-.88-.39-1.11-.97,3.34-.43,6.78,2.24,9.36,2.61,1.1-.96-2.14-.66-1.59-2.1,1.35.57,2.88-.69,3.24.66-.58-1.92,3.11-.11.54-1.93,2.43-.4,4.99-.14,7.55.34,2.56.45,5.14,1.13,7.61,1.65-.25-.57-.25-1.05-.05-1.44-1.67.04-4.12-.48-5.04-1.81,1.08-.99,2.59,1.28,2.89.7-.56-.47-1.66-.44-1.69-1.4,1.41-1.09,2.22.43,3.23.6l-.54.49c3.14,1.27,1.77,3.33,5.08,2.76,1.19-1.18-.02-.96-.07-2.4.8.55,3.29-1.03,4.13.46-.67.06-1.34.12-2.01.17,1.42.4,2.74.32,3.73.8-.11-.31-.2-.62-.5-.74,1.12.43,2.56.27,3.16,1.21l.27-1.56c-.65.7-2.64.89-3,.04.16-1.36,2.19-.58,3.07-.72-3.9-.32-4-2.68-7.26-1.63l.57.47c-2.03,1.19-4.17-.72-5.96-.65.5-.32.6-.89.36-1.14-3.95,1.23-7.85.41-12.36,1.08l-1.35-1.53-.09,1.16c-2.21.49-.46-1.64-1.89-1.53.54,0,.44.19.55.48-2.55-1.33-1.43,1.07-2.87.69.67,1.25,2.77.47,2.11,2.11-2.55-1.33-6.54-.64-6.87-3.43-4.77,1.01-10.62-.86-14.6-1.19-.56.47.33.39.11.78-1.54-1.67-5.34.95-5.32-.49-.78.37-1.13,1.42-1.35,1.8-.99-.73-2.19-1.11-3.48-1.35l.93.43-.11.19-1.32-.61.06-.09c-3.2-.51-6.91-.32-9.77-1.99,1.64,1.01-.49,1.72.28,2.32-1.39-2.35-4.93-2.55-7.81-2.43-.01.48-.25.86.07,1.25l-1.63-1.01.2.59c-3.01.29-6.15-2.41-8.17-1.42,1.2.33,1.19.81,1.28,1.58-2.14-.15-4.16-.27-6.63-1.08.13.15.21.31.2.48-.67.17-1.43-.43-2.09-.74l-.15,1.15c-1.25-.59-2.94-.08-4.42-1.07-.65,1.24-3.64-1.34-5.42-.89-.66-.31,1.4,1.39-.48,1.24-.16-2.51-2.45-.18-2.47-2.87l-1.7.91-.3-1.36c-1.52,2.46-2.09-1.22-4.22-.52.1.29.32.4.2.59-.66-.31-2.22-.55-.98-1.18-1.12-.03-4.88-.82-3.24.67-.09-.77,1.44-.05,2.1.25-.14,1.15-1.79.62-2.26,1.86-.05-.13-.26-.34-.41-.53l-.27.7c-2.04-1.36-4.2-.55-5.66-2.24-.1.36-.48.62-1.2.51l.03-1.44-2.23-.05.96,2.14c-2.46.33-4.09-2.12-6.09-2.55-.6,2.39-3.89-1.07-5.71,1.03l1.55.7c-3.35-.54-3.93.9-7.04-.01,2.69-.73,2.68-.25,6.63-2.11-3.93.9-6.69-1.55-10.3-.25.22.58,1.11.98.22,1.54-.67-1.26-3.36-.05-2.8-1.48-1.12.46-1.34,1.81-2.02,1.99l-3.69-1.83.11.29c-6.37,3.26-11.79-2.45-18.19-.97l.12.77-1.6-1.13c1.25.75-.54.97-.63,1.64l-4.09-1.67c-.08.68.17,2.21,1.17,1.91ZM187.32,100.67l.95.14c.2-.07.39-.08.61.09l-.61-.09c-.5.17-.89.77-.95-.14ZM275.68,107.39l-1.55-.21c.32-.09,1.43.4.99-.28.22.1.78.11.56.49ZM185.78,110.16l.65.79.57-.95-1.22.16ZM173.36,109.78l1.31.59.12-.19-1.33-.6-.1.19ZM158.59,101.41c.08.06.16.1.26.2-.09-.04-.18-.11-.26-.2-1.04-.71-1.49,1.01-2.31-.68,1.07-1.42,1.72.08,2.31.68ZM185.05,102.54c.02-.96-1.53-1.19-1.97-1.87-.68.18.2,1.06.42,1.64-.33.09-.55,0-1-.22.18,2.02,1.24-.64,2.55.45ZM214.41,104.11l-.34.09,1.21.81-.86-.9ZM220.16,105.36c.63,1.27,2.41,1.14,3.62,1.46.37-1.05-.82-2.33-2.27-2.29-1.64-1.02-.71,1.61-1.35.82ZM169.43,103.66c.89.4,2.08,2.63,3.88,1.5l-1.32-.6.33-.09-.32-.87c.3,2.31-1.78.17-2.57.06ZM232.46,106.52c1.2.81,3.39,1.83,3.14,2.69.15-1.63-1.61-2.45-2.16-2.47-.33.08-.56-.02-.99-.22ZM232.74,108.36c-.67.17-.48,1.24-1.68.42.25-.86-.14-2.98-1.94-2.37,1.3,1.58,1.38,2.36,3.15,3.18l.48-1.24ZM230.6,104.93l-.74.19c-.89.64-1.16,2.49-2.28.58l2.28-.58c.2-.15.44-.24.74-.19ZM245.63,105.64l-.71-.59c.71.09.79.34.71.59l.59.5c-1.62.53-.77,0-.59-.5ZM232.04,105.35l2.11.26c-.69.18-2.02.52-2.11-.26ZM245.1,107.08c-.89.07-3.23.2-2.89.11.24-.86,2.35-.61,2.89-.11ZM290.97,109.16l-.65,1.16,1.34.09-.69-1.25ZM277.13,110.68l-.77-.1-.34.57,1.11-.47ZM261.58,110.89c.08-.25.05-.57-.06-.84-.22-.11-.41-.26-.5-.51.2,0,.38.23.5.51.57.28,1.43.17,1.83-.18-.22-.57-1.11-.49-1.44-.89,1.36-1.31,4.21,2.83,3.46-1.11.54.48,2.43,1.56,1.75,2.23-1.5-.27-4.37.11-5.55.79-.07.21-.2.37-.46.39.08-.14.26-.27.46-.39ZM242.12,111.04c-.54-.12-.78-.25-.88-.38-.46-.31-.79-.76-.63-1.3,1.12.52.37.94.63,1.3.28.19.58.33.88.38ZM242.18,112.77l-2.62-1.71.87.89-1.76-.82c.19,1.06,1.94,2.36,3.51,1.64ZM238.01,111.86l-.33-.95.53.98-.2-.03.07.22-2.98-.66,2.91.44ZM207.39,108.59c-1.28,3.19,2.55,2.42,3.06,4.01.18-1.08,1.39-2.71-1.54-2.81,2.59-.97,1.49,2.17,3.13-.47-1.22.15-2.65-.76-2.86-.87l1.44-.05c-.72-2.04-2.25.89-3.23.18ZM191.83,108.59l-1.77-.35,1.88.16-.11.19ZM145.39,108.04c.13.77-2.3,2.15-2.87.71,1.22-.21,2.56-.14,2.87-.71ZM125.4,107.98l2.13.6c-.38,1.75-1.89-.03-2.87.29-.36-.85.43-.3.75-.89ZM111.64,108.38l-.69-.25.78,1.69-.09-1.44ZM114.05,111.61c-.33.12-1.78-.19-1.39-.98l1.39.98ZM100.39,111.11l.88,1.47-.87.17-.02-1.64ZM101.19,109.98c.28.15.41.49.5.88.49.36,1.27.48,2,0-.17-.76-.67-.25-1.14-.42.33-.11.85-.63,1.53-.38-.68,1.39-.12,1.36-.15,2.51-1.97.82-1.97-.65-2.24-1.73-.28-.22-.48-.53-.5-.88ZM108.97,109.31c.26-.15.49-.31.58-.51l.14.28c-.25.51-.5.41-.72.23-.29.16-.62.31-.97.45-.18.98,1.24,1.58,1.63,2.11-.67-.25-1.28-1.17-2.13-.55.13.28.03.48.58.44l-1.19.27c-1.45-1.29-.15-1.77,1.12-2.27.03-.22.12-.44.35-.7.2-.15.4.08.62.25ZM100.11,108.91c-.14-.28.06-.68-.31-1.03l-.68-.23c-.85.65.21,1.24.99,1.27ZM139.03,106.11c-.44.29.58,1.44,1.57,1.13l-.53,1.45c-.03-.96-2.02-.83-2.24-.93-.36-1.34.42-.77,1.19-1.65ZM188.82,108.41c-.54-.5-3.12.5-3.41-1.33-.94,2,2.08,1.68,3.41,1.33ZM189.2,106.4c.25.06.46.09.64.1.76.42.62,1.87,2,1.13-.32-.39-.89.07-1.21-.33.11-.91-.1-.75-.79-.8-.17-.09-.36-.15-.64-.1ZM162.74,105.49l-.89-1.36-1.45.08,2.34,1.28ZM147.23,102.84c.11.77-1.55.76-1.89.39.1,1,1.22.88,2.1,1.01.11.09.3.14.58.14-.17-.08-.36-.11-.58-.14-.33-.24-.09-.75-.09-1.11l.44-.29-1.23-.29.67.29ZM119.8,102.01c-.97.81-1.1.53-1.78.26.2-.4,1.09-.53,1.78-.26ZM155.49,102.08c-1.68.48.78,1.54-.33,2.02l.88-.09c-1.44,1.05-1-1.16-2-.87l.67-.19c.55-.96-1.02-.68-1.13-1.44.79-.39,2.58.39,1.91.58ZM118.2,101.39c-1.63,1.02-1.4-1.02-2.42-1.15,1.3-.94,1.17.91,2.42,1.15ZM143.6,98.45l.11-.19,1.35.56-.11.19-1.35-.56Z"/>
    <path class="cls-2" d="M116.47,111.57c-.4.14-.67.13-.89.07.28-.06.58-.1.89-.07Z"/>
    <path class="cls-2" d="M193.59,113.55c.05-.26.2-.39.39-.47-.03.15-.13.3-.39.47Z"/>
    <path class="cls-2" d="M196.78,114.32s.08,0,.12.01c.03.03.07.06.1.09l-.22-.1Z"/>
    <path class="cls-2" d="M309.46,113.99c.72,1.22-.67.22-1.22.25.55-.02.75-.9,1.22-.25Z"/>
    <path class="cls-2" d="M305.03,112.03c.34.37.81.61,1.39.71-.36.04-.76-.08-1.39-.71Z"/>
    <path class="cls-2" d="M308.61,112.49c-.85.28-1.59.36-2.19.25.56-.06,1.03-.56,2.19-.25Z"/>
    <path class="cls-2" d="M293.25,112.5c.69.75,2.01.34,2.01.34-2.88.74.59,1.43.83,2-1.8-.25-1.82-1.21-2.84-2.34Z"/>
    <path class="cls-2" d="M289.44,112.1c.29,0,.57-.03.8-.14-.29.19-.55.2-.8.14Z"/>
    <path class="cls-2" d="M288.36,112.84c-1-.19-1.35-1.05-1.8-1.72,1.2-.61,1.97.77,2.88.99-.71.01-1.4-.09-1.08.74Z"/>
    <path class="cls-2" d="M257.49,116.4c.22.1.78.11.78.6l-1.68-.04c-.66-.3.56-.47.9-.56Z"/>
    <path class="cls-2" d="M251.4,113.87c-1.33-.12-.68,1.14-1.35.84l.14-1.63,1.21.79Z"/>
    <path class="cls-2" d="M252.44,105.62l.38.18c-.14-.02-.29-.05-.44-.07l.06-.1Z"/>
    <path class="cls-2" d="M244.91,115.25l.85,1.85c-1.11-.51-1.06-1.95-.85-1.85Z"/>
    <polygon class="cls-2" points="239.77 116.26 240.53 116.86 238.1 116.21 239.77 116.26"/>
    <polygon class="cls-2" points="233.67 115.13 233.44 115.51 231.78 114.97 233.67 115.13"/>
    <path class="cls-2" d="M167.14,110.84c-.21-1.54,2.44-.83,3.23-1.21-.59,1.92-2.11-.7-3.23,1.21Z"/>
    <path class="cls-2" d="M118.76,110.81l2.55.3c-1.95.64-.55.02-2.55-.3Z"/>
  </g>
  <g>
    <path class="cls-5" d="M127.48,65.18h-17.65c0-1.77-.28-3.04-.83-3.81-.56-.77-1.89-1.15-4.01-1.15s-3.63.84-4.52,2.53c-.89,1.68-1.33,5.06-1.33,10.13s.52,8.61,1.57,10.52c1.05,1.91,2.99,2.86,5.8,2.86,1.53,0,2.68-.15,3.46-.45.78-.3,1.36-1.14,1.73-2.53h15.33c-.37.79-.81,1.5-1.33,2.12-.52.63-1.05,1.18-1.59,1.66-1.64,1.36-3.82,2.37-6.52,3.05-2.7.67-6.52,1.01-11.45,1.01-5.54,0-10.02-.55-13.44-1.64-3.42-1.09-6.06-2.8-7.9-5.13-1.11-1.39-1.94-3.03-2.49-4.95-.55-1.91-.83-4.08-.83-6.5,0-3.19.52-5.92,1.56-8.21,1.04-2.28,2.6-4.11,4.68-5.49,1.95-1.28,4.45-2.24,7.52-2.88,3.07-.64,6.7-.96,10.9-.96,3.72,0,6.96.23,9.71.69,2.75.46,5.01,1.15,6.79,2.07,1.61.84,2.81,1.84,3.62,3.01.8,1.17,1.21,2.52,1.21,4.06Z"/>
    <path class="cls-5" d="M172.01,77.79c0,4.53-1.69,7.82-5.06,9.89-3.38,2.06-8.52,3.09-15.42,3.09s-11.82-1.09-15.23-3.26c-3.41-2.18-5.11-5.42-5.11-9.72s1.65-7.69,4.96-9.79c3.31-2.1,8.43-3.15,15.37-3.15,7.32,0,12.56,1.06,15.73,3.18,3.17,2.12,4.75,5.37,4.75,9.76ZM156.13,77.81c0-4.03-.25-6.53-.75-7.52-.5-.98-1.75-1.47-3.78-1.47s-3.24.51-3.75,1.53c-.51,1.02-.77,3.54-.77,7.56s.27,6.39.81,7.39c.55,1,1.78,1.5,3.7,1.5s3.04-.53,3.63-1.6c.59-1.07.89-3.53.89-7.39Z"/>
    <path class="cls-5" d="M200.71,90.55h-9.58c-3.77,0-6.62-.43-8.57-1.29-1.95-.86-2.92-2.14-2.92-3.85v-28.07h15.33v27.81c0,.71.39,1.22,1.16,1.52.77.3,2.3.45,4.58.45v3.42Z"/>
    <path class="cls-5" d="M233.11,68.38h-9.49v15.81c0,1.17.57,1.95,1.71,2.35,1.15.4,3.33.6,6.56.6v3.42h-8.74c-4.93,0-8.65-.5-11.19-1.5-2.53-1-3.79-2.53-3.79-4.59v-16.08h-5.85v-3.2h5.85v-7.83h15.45v7.83h9.49v3.2Z"/>
    <path class="cls-5" d="M275.3,78.19h-22.28c0,3.71.35,6.07,1.06,7.08.7,1.01,2.18,1.52,4.41,1.52,1.51,0,2.63-.19,3.36-.57.74-.38,1.1-1.03,1.1-1.97h10.92c0,2.23-1.39,3.87-4.18,4.93-2.78,1.06-7.09,1.58-12.91,1.58-6.43,0-11.31-1.09-14.64-3.26-3.33-2.18-4.99-5.42-4.99-9.72s1.72-7.5,5.18-9.67c3.45-2.18,8.64-3.26,15.58-3.26,5.98,0,10.38.87,13.18,2.62,2.82,1.75,4.22,4.37,4.22,7.86v2.86ZM262.61,74.55c0-2.2-.29-3.7-.86-4.51-.57-.81-1.89-1.22-3.94-1.22s-3.25.36-3.85,1.08c-.6.72-.9,2.27-.9,4.65h9.55Z"/>
    <path class="cls-5" d="M312.05,70.69c-1.21-.21-2.41-.37-3.61-.48-1.19-.12-2.46-.18-3.8-.18-1.44,0-2.83.04-4.18.12-1.36.08-2.34.22-2.94.43v19.97h-15.33v-25.37h12.58l.94,1.11c1.4-.5,3.04-.86,4.9-1.09,1.86-.23,3.93-.34,6.19-.34.96,0,1.88.05,2.77.14.89.09,1.72.22,2.49.37v5.33Z"/>
  </g>
</svg>