<svg xmlns="http://www.w3.org/2000/svg" width="166" height="39"><path d="M16.133 29.247c-1.009.458-2.622.758-4.16.758-4.52 0-6.98-2.753-6.98-6.4 0-4.1 2.834-6.539 7.041-6.539 1.67 0 3.11.37 4.08.81l.77-2.671c-.76-.397-2.513-.9-4.99-.9-6.224 0-10.486 3.91-10.486 9.452 0 5.414 3.829 9.051 10.027 9.051 2.495 0 4.45-.5 5.307-.928l-.61-2.633zm7.744 3.561c3.72 0 7.266-2.34 7.266-6.93 0-3.798-2.813-6.611-7.032-6.611-4.382 0-7.337 2.797-7.337 6.887 0 4.067 3.134 6.655 7.076 6.655h.027zm.03-2.434c-2.097 0-3.627-1.727-3.627-4.314 0-2.244 1.15-4.36 3.699-4.36 2.516 0 3.605 2.222 3.605 4.303 0 2.813-1.625 4.371-3.65 4.371h-.027zm8.375 2.116h3.41v-7.465c0-.338.046-.728.152-.99.373-.983 1.36-2.026 2.858-2.026 1.966 0 2.781 1.46 2.781 3.5v6.98h3.411v-7.403c0-4.445-2.735-5.82-5.017-5.82-2.409 0-3.91 1.404-4.467 2.395h-.083l-.167-2.077h-2.985c.065 1.109.107 2.403.107 3.905v9zm20.799.318c3.72 0 7.266-2.34 7.266-6.93 0-3.798-2.813-6.611-7.031-6.611-4.383 0-7.337 2.797-7.337 6.887 0 4.067 3.133 6.655 7.075 6.655h.027zm.03-2.434c-2.097 0-3.627-1.727-3.627-4.314 0-2.244 1.15-4.36 3.7-4.36 2.515 0 3.604 2.222 3.604 4.303 0 2.813-1.625 4.371-3.65 4.371h-.027zm19.125-.81a7.542 7.542 0 0 1-2.958.577c-2.389 0-4.352-1.488-4.352-4.138-.016-2.362 1.634-4.13 4.338-4.13 1.342 0 2.23.273 2.836.576l.628-2.523c-.877-.37-2.23-.66-3.585-.66-4.911 0-7.72 3.047-7.72 6.912 0 3.926 2.799 6.63 7.172 6.63 1.841 0 3.365-.391 4.132-.747l-.491-2.498zm7.661 3.244c3.72 0 7.266-2.34 7.266-6.93 0-3.798-2.813-6.611-7.031-6.611-4.383 0-7.337 2.797-7.337 6.887 0 4.067 3.134 6.655 7.076 6.655h.026zm.03-2.434c-2.096 0-3.627-1.727-3.627-4.314 0-2.244 1.15-4.36 3.7-4.36 2.516 0 3.605 2.222 3.605 4.303 0 2.813-1.626 4.371-3.651 4.371h-.026zm22.202 2.116h3.411v-7.57c0-.373.023-.699.152-.991.384-.93 1.372-1.908 2.828-1.908 2.007 0 2.811 1.472 2.811 3.5v6.969h3.411v-7.414c0-4.435-2.712-5.81-4.957-5.81-.854 0-1.694.228-2.396.61a4.745 4.745 0 0 0-1.796 1.6h-.053V13.51h-3.411v18.98zm18.045 0V19.584h-3.412V32.49h3.412zm-1.704-14.906c1.25 0 2.007-.858 2.007-1.878-.015-1.033-.768-1.865-1.995-1.865-1.229 0-2.008.844-2.008 1.865 0 1.02.756 1.878 1.97 1.878h.026zm19.227 14.906V19.584h-3.411V32.49h3.41zm-1.703-14.906c1.25 0 2.007-.858 2.007-1.878-.015-1.033-.767-1.865-1.996-1.865-1.228 0-2.007.844-2.007 1.865 0 1.02.756 1.878 1.97 1.878h.026zm4.31 20.208h3.41v-6.827h.054c.758 1.173 2.317 1.844 4.11 1.844 3.216 0 6.455-2.326 6.455-7.006 0-4.08-2.838-6.536-5.926-6.536-2.26 0-3.934.898-4.993 2.44h-.053l-.167-2.123h-2.996c.065 1.258.106 2.7.106 4.35v13.858zm3.41-12.446c0-.253.058-.527.12-.781a3.485 3.485 0 0 1 3.387-2.669c2.366 0 3.642 1.9 3.642 4.095 0 2.617-1.458 4.233-3.741 4.233-1.691 0-3-1.187-3.335-2.537a4.613 4.613 0 0 1-.073-.826v-1.515zm11.2 6.505c1.075.556 2.577.957 4.322.957 3.734 0 5.567-1.816 5.567-4.08-.015-2-1.155-3.173-3.715-3.938-1.76-.53-2.485-.922-2.485-1.78 0-.827.702-1.374 1.923-1.374 1.292 0 2.49.5 3.051.806l.67-2.358c-.803-.443-2.19-.818-3.739-.818-3.24 0-5.215 1.814-5.215 4.1-.015 1.6 1.155 3.02 3.884 3.792 1.717.5 2.302.915 2.302 1.81 0 .818-.65 1.44-2.227 1.44-1.272 0-2.85-.537-3.65-1.03l-.688 2.473zm-66.558.632h3.381v-7.268c.5.119 1.149.16 1.865.16 2.586 0 4.703-.633 6.104-1.95 1.051-.962 1.589-2.408 1.589-4.062 0-1.73-.757-3.138-1.853-4.002-1.167-.946-2.98-1.5-5.533-1.5-2.503 0-4.277.175-5.553.375v18.247zm3.381-15.878c.379-.076 1.127-.163 2.191-.163 2.377 0 3.986.94 3.986 3.004 0 2.108-1.641 3.303-4.273 3.303-.796 0-1.419-.05-1.904-.183v-5.96z"/><path fill="#D11E0F" d="M103.463 1.056c-4.617 1.604-5.828 3.192-8.32 5.193-7.062 1.86-13.252-1.122-18.64-3.584 2.547 1.839 5.065 5.747 6.13 11.287 4.07-1.221 8.972-4.516 13.289-7.593 2.42-1.073 5.073-2.656 7.54-5.303z"/><path d="M122.516 32.49h3.41V13.509h-3.41v18.98zM128.533 32.49h3.411V13.509h-3.41v18.98z"/></svg>