<?xml version="1.0" encoding="utf-8"?>
<!-- Generator: Adobe Illustrator 26.0.2, SVG Export Plug-In . SVG Version: 6.00 Build 0)  -->
<svg version="1.1" id="Layer_1" xmlns="http://www.w3.org/2000/svg" xmlns:xlink="http://www.w3.org/1999/xlink" x="0px" y="0px"
	 viewBox="0 0 175 43" style="enable-background:new 0 0 175 43;" xml:space="preserve">
<style type="text/css">
	.st0{clip-path:url(#SVGID_00000079456428783856790960000005318280810180141995_);fill:#FFFFFF;}
	.st1{fill:#A4CE4C;}
	.st2{fill:#FFFFFF;}
</style>
<g>
	<g>
		<defs>
			<rect id="SVGID_1_" y="0" width="175" height="43"/>
		</defs>
		<clipPath id="SVGID_00000134245684719067585380000002345079995337281933_">
			<use xlink:href="#SVGID_1_"  style="overflow:visible;"/>
		</clipPath>
		<path style="clip-path:url(#SVGID_00000134245684719067585380000002345079995337281933_);fill:#FFFFFF;" d="M110.2,0
			c5.1,0,10.2,0,15.3,0c2.7,0,3.9,1.6,3.1,4.2c-0.2,0.6-0.5,1.2-0.9,1.7c-1.2,1.8-2.4,3.7-3.6,5.5c-1.3,2-3.1,3.2-5.7,3
			c-2.3-0.2-4.7-0.2-7-0.2c-0.5,0-1.2-0.1-1.4,0.4c-0.2,0.6,0.4,0.9,0.8,1.2c3.4,3.2,6.9,6.4,10.3,9.6c0.5,0.5,1.2,0.9,0.9,1.7
			c-0.3,0.9-1.2,0.8-1.9,0.8c-2.7,0-5.5,0-8.2,0c-1,0-1.8-0.3-2.4-1.1c-3.1-3.4-6.2-6.7-9.3-10.1c-0.8-0.9-1.9-1.8-1-3.1
			c1-1.5,1.3-3.4,3.8-3.5c2.7-0.1,5.4,0.2,8,0.1c1.9-0.1,3.7-1.8,3.7-3.6c0-1.1-0.6-1.8-1.7-1.8c-2.7,0-5.4-0.1-8.1,0
			c-1.6,0.1-2.6,1.2-3.3,2.5c-3.2,5.3-6.3,10.6-9.6,15.9c-3.5,5.6-1.8,4.7-8.4,4.7c-1.8,0-3.5,0-5.3,0c-1.8,0-2.2-0.7-1.3-2.3
			c2.1-3.7,4.4-7.4,6.6-11c2.6-4.4,5.3-8.7,7.8-13.1C92,0.5,92.9,0,94.2,0C99.6,0.1,104.9,0,110.2,0C110.2,0,110.2,0,110.2,0
			L110.2,0z"/>
		<path style="clip-path:url(#SVGID_00000134245684719067585380000002345079995337281933_);fill:#FFFFFF;" d="M147.8,16.4
			c0-0.1,0.2-0.2,0.3-0.3c1.1-1.1,2.2-2.2,3.4-3.3c0.2-0.2,0.4-0.4,0.7-0.6c0.4-0.2,0.8-0.2,1.3-0.2c2.2,0,4.3,0,6.5,0.1
			c0.4,0,0.9,0,1.1-0.3c0.3-0.3,0.3-0.7,0.3-1c0.1-1.5,0.2-3,0.3-4.5c0-0.3,0-0.6-0.1-0.9c-0.3-0.6-1-0.8-1.7-0.7
			c-1.6,0.2-2.9,1.4-4,2.5c-1.3,1.3-2.7,2.6-4,3.8c-1.3,1.3-2.7,2.6-4,3.9c-1.3,1.2-2.6,2.5-3.9,3.7c-1.3,1.3-2.7,2.6-4,3.9
			c-1.3,1.3-2.6,2.6-4,3.9c0,0-0.1,0.1-0.1,0.1c-1.3,1.2-2.6,1.8-4.4,1.7c-1.9-0.1-3.7,0-5.6,0c-0.6,0-1.2-0.1-1.5-0.7
			c-0.2-0.6,0.2-1,0.5-1.4c8.5-8.2,16.9-16.6,25.6-24.6c1-1,2.2-1.3,3.6-1.3c6.3,0,12.6,0.1,18.9,0c1.3,0,1.7,0.3,1.7,1.7
			c-0.3,5.2-0.9,10.3-1.5,15.5c-0.3,2.9-0.6,5.8-0.9,8.8c-0.1,1.5-0.9,2.1-2.2,2.1c-2.9,0-5.7,0-8.6,0c-1.6,0-2-0.9-1.9-2.3
			c0.2-2.5,0.4-4.9,0.8-7.4c0.2-1.3-0.2-1.6-1.4-1.6c-1.9,0-3.7,0-5.6,0c-1.9,0-3.7,0-5.6,0c-0.2,0-0.4-0.1-0.4-0.3
			C147.8,16.4,147.8,16.4,147.8,16.4L147.8,16.4z"/>
		<path style="clip-path:url(#SVGID_00000134245684719067585380000002345079995337281933_);fill:#FFFFFF;" d="M52.6,13.1
			c0.3-0.4,0.7-0.7,1.2-0.9c0.4-0.2,0.9-0.2,1.4-0.2c2.2,0,4.4,0,6.6,0c0.4,0,0.7,0,1-0.3c0.2-0.2,0.3-0.5,0.3-0.8
			c0.2-1.7,0.3-3.4,0.4-5c0-0.2,0-0.5-0.1-0.7c-0.2-0.5-1-0.6-1.6-0.6c-2,0.3-3.6,1.8-5,3.2c0,0-0.2,0.2-0.2,0.2
			c-0.1,0.1-0.2,0.2-0.3,0.3c-0.2,0.2-0.3,0.3-0.5,0.5c-0.3,0.3-0.7,0.6-1,1c-0.7,0.6-1.3,1.3-2,1.9c-1.3,1.3-2.6,2.6-4,3.9
			c-1.3,1.3-2.6,2.5-3.9,3.8c-1.1,1.1-2.3,2.2-3.4,3.2c-1.4,1.3-2.8,2.7-4.1,4c-1,1-2.1,1.5-3.6,1.4C31.9,28,30,28,28,28
			c-0.6,0-1.4,0.2-1.7-0.6c-0.4-0.8,0.3-1.3,0.8-1.8C32.5,20.4,38,15.2,43.4,10c2.9-2.8,5.7-5.8,8.8-8.4C53.5,0.5,54.8,0,56.5,0
			c6,0.1,11.9,0,17.9,0c2.2,0,2.4,0.1,2.2,2.3c-0.6,6.6-1.3,13.2-2,19.8c-0.1,1.3-0.2,2.6-0.3,4c-0.1,1.3-0.8,1.9-2.2,1.9
			c-2.9-0.1-5.7,0-8.6,0c-1.5,0-2-0.7-1.9-2.1c0.2-2.5,0.4-4.9,0.8-7.4c0.1-0.4,0.1-1-0.2-1.4c-0.3-0.3-0.8-0.3-1.1-0.3
			c-1.7,0-3.5,0-5.2,0c-1.1,0-4.1,0-4.7,0c-0.4,0-0.8,0-1.3-0.1c-0.1,0-0.2,0-0.2-0.1c0,0-0.1-0.1-0.1-0.1c0-0.1,0-0.1,0-0.2
			C49.7,16.3,51.8,13.9,52.6,13.1L52.6,13.1z"/>
		<path style="clip-path:url(#SVGID_00000134245684719067585380000002345079995337281933_);fill:#FFFFFF;" d="M24.5,0
			c6.6,0,13.2,0,19.8,0c0.5,0,1.5-0.2,1.6,0.5c0,0.2,0,0.4-0.2,0.6c-0.1,0.2-0.3,0.4-0.5,0.6c-1.1,1.3-2.5,2.2-4.4,2.1
			c-3.3-0.1-6.5,0-9.8,0c-1.3,0-2.2,0.4-2.9,1.6c-4.3,7-8.7,13.9-13,20.9c-0.7,1.1-1.7,1.7-3,1.6c-2.7-0.1-5.5,0-8.2,0
			c-1.8,0-2.1-0.6-1.2-2.2c4-6.7,7.9-13.4,11.9-20.2c1-1.7,0.9-1.8-1-1.8c-4,0-7.9,0-11.9,0C1,3.9,0.2,4.1,0,3.4
			C0,3.2,0,2.9,0.1,2.7C0.3,2.5,0.5,2.3,0.7,2C1.8,0.8,3.1,0,4.9,0C11.5,0.1,18,0,24.5,0L24.5,0z"/>
	</g>
	<path class="st1" d="M87.9,31.9c-28.4,0-56.8,0-85.2,0c-0.3,0-0.6,0-0.9,0c-0.7,0-1.1-0.2-1.1-1c0-0.7,0.3-1.1,1.1-1.1
		c0.9,0,1.9,0,2.8,0c55.9,0,111.9,0,167.8,0c0.5,0,0.9,0,1.4,0c0.9,0,1,0.5,1,1.3c0,0.8-0.4,0.9-1.1,0.9c-15.7,0-31.3,0-47-0.1
		C113.7,31.9,100.8,31.9,87.9,31.9C87.9,31.9,87.9,31.9,87.9,31.9L87.9,31.9z"/>
	<polygon class="st2" points="60.7,42.9 62.1,34.8 67.2,34.8 67,36.2 63.3,36.2 63,38 66.5,38 66.3,39.3 62.7,39.3 62.3,41.5 
		66.3,41.5 66,42.9 60.7,42.9 	"/>
	<polygon class="st2" points="74,42.9 72.7,42.9 70.8,37.4 69.8,42.9 68.5,42.9 70,34.8 71.3,34.8 73.1,40.2 74.1,34.8 75.4,34.8 
		74,42.9 	"/>
	<polygon class="st2" points="76.8,42.9 78.3,34.8 83.3,34.8 83.1,36.2 79.4,36.2 79.1,38 82.7,38 82.4,39.3 78.9,39.3 78.4,41.5 
		82.4,41.5 82.2,42.9 76.8,42.9 	"/>
	<path class="st2" d="M86.9,38.3h0.7c0.8,0,1.3-0.1,1.5-0.2c0.2-0.1,0.4-0.3,0.6-0.5c0.1-0.2,0.2-0.5,0.2-0.7c0-0.3-0.1-0.5-0.3-0.7
		c-0.1-0.1-0.4-0.1-0.8-0.1h-1.6L86.9,38.3L86.9,38.3z M86.1,42.9h-1.4l1.4-8.1h3c0.5,0,0.9,0.1,1.2,0.2c0.3,0.1,0.5,0.4,0.7,0.7
		c0.2,0.3,0.3,0.7,0.3,1.2c0,0.7-0.2,1.2-0.5,1.7c-0.3,0.4-0.9,0.7-1.6,0.8c0.2,0.2,0.4,0.4,0.5,0.8c0.3,0.6,0.7,1.5,1.1,2.7h-1.5
		c-0.1-0.5-0.4-1.2-0.7-2.1c-0.2-0.5-0.4-0.9-0.6-1c-0.1-0.1-0.4-0.2-0.7-0.2h-0.6L86.1,42.9L86.1,42.9z"/>
	<path class="st2" d="M96.8,38.6h3.1L99.3,42c-0.4,0.3-0.8,0.5-1.3,0.7c-0.5,0.2-1.1,0.3-1.6,0.3c-0.8,0-1.5-0.2-2-0.7
		c-0.6-0.6-0.9-1.5-0.9-2.7c0-0.8,0.1-1.5,0.4-2.3c0.3-0.9,0.8-1.5,1.4-2c0.6-0.5,1.3-0.7,2.1-0.7c0.8,0,1.4,0.2,1.9,0.6
		c0.5,0.4,0.8,1.1,1,1.9l-1.3,0.2c-0.1-0.5-0.3-0.8-0.6-1c-0.3-0.2-0.6-0.3-1-0.3c-0.5,0-0.9,0.1-1.3,0.4c-0.4,0.3-0.7,0.7-0.9,1.3
		c-0.2,0.6-0.3,1.2-0.3,1.9c0,0.7,0.1,1.2,0.4,1.5c0.3,0.3,0.6,0.5,1.2,0.5c0.3,0,0.6-0.1,0.9-0.2c0.3-0.1,0.6-0.2,0.8-0.4l0.2-1.2
		h-1.7L96.8,38.6L96.8,38.6z"/>
	<path class="st2" d="M105.3,42.9h-1.4l0.6-3.1l-1.9-4.9h1.5l0.9,2.3c0.2,0.5,0.3,0.9,0.4,1.2c0.1-0.2,0.2-0.5,0.4-0.8l0.7-1.1
		l1-1.6h1.6l-3.1,5.1L105.3,42.9L105.3,42.9z"/>
	<path class="st2" d="M113.8,40.2l1.3-0.1c0,0.5,0.1,0.8,0.2,1c0.2,0.3,0.6,0.4,1.1,0.4c0.5,0,0.8-0.1,1-0.3
		c0.2-0.2,0.3-0.4,0.3-0.7c0-0.2-0.1-0.4-0.3-0.6c-0.1-0.1-0.4-0.3-1-0.6c-0.5-0.3-0.9-0.5-1.2-0.7c-0.2-0.2-0.4-0.4-0.6-0.7
		c-0.1-0.3-0.2-0.6-0.2-1c0-0.7,0.2-1.2,0.6-1.7c0.4-0.4,1-0.7,1.8-0.7c0.8,0,1.4,0.2,1.9,0.7c0.4,0.4,0.7,1,0.7,1.8l-1.4,0.1
		c0-0.4-0.2-0.7-0.4-0.9c-0.2-0.2-0.5-0.3-0.9-0.3c-0.4,0-0.7,0.1-0.8,0.2c-0.2,0.2-0.2,0.4-0.2,0.6c0,0.2,0.1,0.4,0.2,0.6
		c0.2,0.2,0.5,0.4,1,0.6c0.8,0.4,1.3,0.7,1.5,1c0.3,0.4,0.5,0.8,0.5,1.4c0,0.7-0.2,1.3-0.7,1.8c-0.5,0.5-1.1,0.8-2,0.8
		c-0.6,0-1.1-0.1-1.5-0.3c-0.4-0.2-0.7-0.6-0.9-1C113.9,41.3,113.8,40.8,113.8,40.2L113.8,40.2z"/>
	<polygon class="st2" points="121.4,42.9 122.8,34.8 127.9,34.8 127.7,36.2 124,36.2 123.7,38 127.2,38 127,39.3 123.4,39.3 
		123,41.5 127,41.5 126.7,42.9 121.4,42.9 	"/>
	<path class="st2" d="M131.4,38.3h0.7c0.8,0,1.3-0.1,1.5-0.2c0.2-0.1,0.4-0.3,0.6-0.5c0.1-0.2,0.2-0.5,0.2-0.7
		c0-0.3-0.1-0.5-0.3-0.7c-0.1-0.1-0.4-0.1-0.8-0.1h-1.6L131.4,38.3L131.4,38.3z M130.6,42.9h-1.4l1.4-8.1h3c0.5,0,0.9,0.1,1.2,0.2
		c0.3,0.1,0.5,0.4,0.7,0.7c0.2,0.3,0.3,0.7,0.3,1.2c0,0.7-0.2,1.2-0.5,1.7c-0.3,0.4-0.9,0.7-1.6,0.8c0.2,0.2,0.4,0.4,0.5,0.8
		c0.3,0.6,0.7,1.5,1.1,2.7h-1.5c-0.1-0.5-0.4-1.2-0.7-2.1c-0.2-0.5-0.4-0.9-0.6-1c-0.1-0.1-0.4-0.2-0.7-0.2h-0.6L130.6,42.9
		L130.6,42.9z"/>
	<polygon class="st2" points="141,42.9 139.5,42.9 138.2,34.8 139.6,34.8 140.5,40.9 143.3,34.8 144.7,34.8 141,42.9 	"/>
	<polygon class="st2" points="145.3,42.9 146.7,34.8 148.1,34.8 146.7,42.9 145.3,42.9 	"/>
	<path class="st2" d="M154.4,40l1.4,0.3c-0.3,0.9-0.7,1.6-1.2,2.1c-0.6,0.5-1.2,0.7-2,0.7c-0.8,0-1.5-0.3-2-0.9
		c-0.5-0.6-0.7-1.5-0.7-2.6c0-0.9,0.2-1.8,0.5-2.5c0.3-0.8,0.8-1.3,1.3-1.7c0.6-0.4,1.2-0.6,1.8-0.6c0.7,0,1.3,0.2,1.8,0.7
		c0.5,0.5,0.7,1.1,0.8,1.9l-1.4,0.2c-0.1-0.5-0.2-0.8-0.4-1c-0.2-0.2-0.5-0.3-0.9-0.3c-0.4,0-0.8,0.1-1.1,0.4
		c-0.3,0.3-0.6,0.7-0.8,1.3c-0.2,0.6-0.3,1.2-0.3,1.8c0,0.6,0.1,1.1,0.4,1.5c0.3,0.4,0.6,0.5,1,0.5c0.4,0,0.7-0.1,1-0.4
		C154,40.9,154.2,40.5,154.4,40L154.4,40z"/>
	<polygon class="st2" points="157.8,42.9 159.2,34.8 164.3,34.8 164,36.2 160.4,36.2 160,38 163.6,38 163.3,39.3 159.8,39.3 
		159.4,41.5 163.3,41.5 163.1,42.9 157.8,42.9 	"/>
	<path class="st2" d="M165.8,40.2l1.3-0.1c0,0.5,0.1,0.8,0.2,1c0.2,0.3,0.6,0.4,1.1,0.4c0.5,0,0.8-0.1,1-0.3
		c0.2-0.2,0.3-0.4,0.3-0.7c0-0.2-0.1-0.4-0.3-0.6c-0.1-0.1-0.4-0.3-1-0.6c-0.5-0.3-0.9-0.5-1.2-0.7c-0.2-0.2-0.4-0.4-0.6-0.7
		c-0.1-0.3-0.2-0.6-0.2-1c0-0.7,0.2-1.2,0.6-1.7c0.4-0.4,1-0.7,1.8-0.7c0.8,0,1.4,0.2,1.9,0.7c0.4,0.4,0.7,1,0.7,1.8l-1.4,0.1
		c0-0.4-0.2-0.7-0.4-0.9c-0.2-0.2-0.5-0.3-0.9-0.3c-0.4,0-0.7,0.1-0.8,0.2c-0.2,0.2-0.3,0.4-0.3,0.6c0,0.2,0.1,0.4,0.2,0.6
		c0.2,0.2,0.5,0.4,1,0.6c0.8,0.4,1.3,0.7,1.5,1c0.3,0.4,0.5,0.8,0.5,1.4c0,0.7-0.2,1.3-0.7,1.8c-0.5,0.5-1.1,0.8-2,0.8
		c-0.6,0-1.1-0.1-1.5-0.3c-0.4-0.2-0.7-0.6-0.9-1C165.8,41.3,165.8,40.8,165.8,40.2L165.8,40.2z"/>
</g>
</svg>
