<svg xmlns="http://www.w3.org/2000/svg" xmlns:xlink="http://www.w3.org/1999/xlink" xml:space="preserve" id="Layer_1" x="0" y="0" style="enable-background:new 0 0 175 43" version="1.1" viewBox="0 0 175 43"><style>.st2{fill:#fff}</style><defs><path id="SVGID_1_" d="M0 0h175v43H0z"/></defs><clipPath id="SVGID_00000134245684719067585380000002345079995337281933_"><use xlink:href="#SVGID_1_" style="overflow:visible"/></clipPath><path d="M110.2 0h15.3c2.7 0 3.9 1.6 3.1 4.2-.2.6-.5 1.2-.9 1.7-1.2 1.8-2.4 3.7-3.6 5.5-1.3 2-3.1 3.2-5.7 3-2.3-.2-4.7-.2-7-.2-.5 0-1.2-.1-1.4.4-.2.6.4.9.8 1.2 3.4 3.2 6.9 6.4 10.3 9.6.5.5 1.2.9.9 1.7-.3.9-1.2.8-1.9.8h-8.2c-1 0-1.8-.3-2.4-1.1-3.1-3.4-6.2-6.7-9.3-10.1-.8-.9-1.9-1.8-1-3.1 1-1.5 1.3-3.4 3.8-3.5 2.7-.1 5.4.2 8 .1 1.9-.1 3.7-1.8 3.7-3.6 0-1.1-.6-1.8-1.7-1.8-2.7 0-5.4-.1-8.1 0-1.6.1-2.6 1.2-3.3 2.5-3.2 5.3-6.3 10.6-9.6 15.9-3.5 5.6-1.8 4.7-8.4 4.7h-5.3c-1.8 0-2.2-.7-1.3-2.3 2.1-3.7 4.4-7.4 6.6-11 2.6-4.4 5.3-8.7 7.8-13.1.6-1 1.5-1.5 2.8-1.5 5.4.1 10.7 0 16 0zM147.8 16.4c0-.1.2-.2.3-.3 1.1-1.1 2.2-2.2 3.4-3.3.2-.2.4-.4.7-.6.4-.2.8-.2 1.3-.2 2.2 0 4.3 0 6.5.1.4 0 .9 0 1.1-.3.3-.3.3-.7.3-1l.3-4.5c0-.3 0-.6-.1-.9-.3-.6-1-.8-1.7-.7-1.6.2-2.9 1.4-4 2.5-1.3 1.3-2.7 2.6-4 3.8-1.3 1.3-2.7 2.6-4 3.9-1.3 1.2-2.6 2.5-3.9 3.7-1.3 1.3-2.7 2.6-4 3.9-1.3 1.3-2.6 2.6-4 3.9l-.1.1c-1.3 1.2-2.6 1.8-4.4 1.7-1.9-.1-3.7 0-5.6 0-.6 0-1.2-.1-1.5-.7-.2-.6.2-1 .5-1.4 8.5-8.2 16.9-16.6 25.6-24.6 1-1 2.2-1.3 3.6-1.3 6.3 0 12.6.1 18.9 0 1.3 0 1.7.3 1.7 1.7-.3 5.2-.9 10.3-1.5 15.5-.3 2.9-.6 5.8-.9 8.8-.1 1.5-.9 2.1-2.2 2.1h-8.6c-1.6 0-2-.9-1.9-2.3.2-2.5.4-4.9.8-7.4.2-1.3-.2-1.6-1.4-1.6h-11.2c-.2 0-.4-.1-.4-.3l.4-.3zM52.6 13.1c.3-.4.7-.7 1.2-.9.4-.2.9-.2 1.4-.2h6.6c.4 0 .7 0 1-.3.2-.2.3-.5.3-.8.2-1.7.3-3.4.4-5 0-.2 0-.5-.1-.7-.2-.5-1-.6-1.6-.6-2 .3-3.6 1.8-5 3.2l-.2.2-.3.3-.5.5c-.3.3-.7.6-1 1-.7.6-1.3 1.3-2 1.9-1.3 1.3-2.6 2.6-4 3.9-1.3 1.3-2.6 2.5-3.9 3.8-1.1 1.1-2.3 2.2-3.4 3.2-1.4 1.3-2.8 2.7-4.1 4-1 1-2.1 1.5-3.6 1.4H28c-.6 0-1.4.2-1.7-.6-.4-.8.3-1.3.8-1.8C32.5 20.4 38 15.2 43.4 10c2.9-2.8 5.7-5.8 8.8-8.4C53.5.5 54.8 0 56.5 0c6 .1 11.9 0 17.9 0 2.2 0 2.4.1 2.2 2.3-.6 6.6-1.3 13.2-2 19.8-.1 1.3-.2 2.6-.3 4-.1 1.3-.8 1.9-2.2 1.9-2.9-.1-5.7 0-8.6 0-1.5 0-2-.7-1.9-2.1.2-2.5.4-4.9.8-7.4.1-.4.1-1-.2-1.4-.3-.3-.8-.3-1.1-.3h-9.9c-.4 0-.8 0-1.3-.1-.1 0-.2 0-.2-.1l-.1-.1v-.2c.1 0 2.2-2.4 3-3.2zM24.5 0h19.8c.5 0 1.5-.2 1.6.5 0 .2 0 .4-.2.6-.1.2-.3.4-.5.6-1.1 1.3-2.5 2.2-4.4 2.1-3.3-.1-6.5 0-9.8 0-1.3 0-2.2.4-2.9 1.6-4.3 7-8.7 13.9-13 20.9-.7 1.1-1.7 1.7-3 1.6-2.7-.1-5.5 0-8.2 0-1.8 0-2.1-.6-1.2-2.2 4-6.7 7.9-13.4 11.9-20.2 1-1.7.9-1.8-1-1.8H1.7C1 3.9.2 4.1 0 3.4c0-.2 0-.5.1-.7.2-.2.4-.4.6-.7C1.8.8 3.1 0 4.9 0 11.5.1 18 0 24.5 0z" style="clip-path:url(#SVGID_00000134245684719067585380000002345079995337281933_);fill:#fff"/><path d="M87.9 31.9H1.8c-.7 0-1.1-.2-1.1-1 0-.7.3-1.1 1.1-1.1H173.8c.9 0 1 .5 1 1.3s-.4.9-1.1.9c-15.7 0-31.3 0-47-.1H87.9z" style="fill:#a4ce4c"/><path d="m60.7 42.9 1.4-8.1h5.1l-.2 1.4h-3.7L63 38h3.5l-.2 1.3h-3.6l-.4 2.2h4l-.3 1.4h-5.3zM74 42.9h-1.3l-1.9-5.5-1 5.5h-1.3l1.5-8.1h1.3l1.8 5.4 1-5.4h1.3L74 42.9zM76.8 42.9l1.5-8.1h5l-.2 1.4h-3.7l-.3 1.8h3.6l-.3 1.3h-3.5l-.5 2.2h4l-.2 1.4h-5.4zM86.9 38.3h.7c.8 0 1.3-.1 1.5-.2.2-.1.4-.3.6-.5.1-.2.2-.5.2-.7 0-.3-.1-.5-.3-.7-.1-.1-.4-.1-.8-.1h-1.6l-.3 2.2zm-.8 4.6h-1.4l1.4-8.1h3c.5 0 .9.1 1.2.2.3.1.5.4.7.7.2.3.3.7.3 1.2 0 .7-.2 1.2-.5 1.7-.3.4-.9.7-1.6.8.2.2.4.4.5.8.3.6.7 1.5 1.1 2.7h-1.5c-.1-.5-.4-1.2-.7-2.1-.2-.5-.4-.9-.6-1-.1-.1-.4-.2-.7-.2h-.6l-.6 3.3zM96.8 38.6h3.1l-.6 3.4c-.4.3-.8.5-1.3.7-.5.2-1.1.3-1.6.3-.8 0-1.5-.2-2-.7-.6-.6-.9-1.5-.9-2.7 0-.8.1-1.5.4-2.3.3-.9.8-1.5 1.4-2 .6-.5 1.3-.7 2.1-.7s1.4.2 1.9.6c.5.4.8 1.1 1 1.9l-1.3.2c-.1-.5-.3-.8-.6-1-.3-.2-.6-.3-1-.3-.5 0-.9.1-1.3.4-.4.3-.7.7-.9 1.3-.2.6-.3 1.2-.3 1.9s.1 1.2.4 1.5c.3.3.6.5 1.2.5.3 0 .6-.1.9-.2.3-.1.6-.2.8-.4l.2-1.2h-1.7l.1-1.2zM105.3 42.9h-1.4l.6-3.1-1.9-4.9h1.5l.9 2.3c.2.5.3.9.4 1.2.1-.2.2-.5.4-.8l.7-1.1 1-1.6h1.6L106 40l-.7 2.9zM113.8 40.2l1.3-.1c0 .5.1.8.2 1 .2.3.6.4 1.1.4.5 0 .8-.1 1-.3.2-.2.3-.4.3-.7 0-.2-.1-.4-.3-.6-.1-.1-.4-.3-1-.6-.5-.3-.9-.5-1.2-.7-.2-.2-.4-.4-.6-.7-.1-.3-.2-.6-.2-1 0-.7.2-1.2.6-1.7.4-.4 1-.7 1.8-.7s1.4.2 1.9.7c.4.4.7 1 .7 1.8l-1.4.1c0-.4-.2-.7-.4-.9-.2-.2-.5-.3-.9-.3s-.7.1-.8.2c-.2.2-.2.4-.2.6 0 .2.1.4.2.6.2.2.5.4 1 .6.8.4 1.3.7 1.5 1 .3.4.5.8.5 1.4 0 .7-.2 1.3-.7 1.8-.5.5-1.1.8-2 .8-.6 0-1.1-.1-1.5-.3-.4-.2-.7-.6-.9-1 .1-.3 0-.8 0-1.4zM121.4 42.9l1.4-8.1h5.1l-.2 1.4H124l-.3 1.8h3.5l-.2 1.3h-3.6l-.4 2.2h4l-.3 1.4h-5.3zM131.4 38.3h.7c.8 0 1.3-.1 1.5-.2.2-.1.4-.3.6-.5.1-.2.2-.5.2-.7 0-.3-.1-.5-.3-.7-.1-.1-.4-.1-.8-.1h-1.6l-.3 2.2zm-.8 4.6h-1.4l1.4-8.1h3c.5 0 .9.1 1.2.2.3.1.5.4.7.7.2.3.3.7.3 1.2 0 .7-.2 1.2-.5 1.7-.3.4-.9.7-1.6.8.2.2.4.4.5.8.3.6.7 1.5 1.1 2.7h-1.5c-.1-.5-.4-1.2-.7-2.1-.2-.5-.4-.9-.6-1-.1-.1-.4-.2-.7-.2h-.6l-.6 3.3zM141 42.9h-1.5l-1.3-8.1h1.4l.9 6.1 2.8-6.1h1.4l-3.7 8.1zM145.3 42.9l1.4-8.1h1.4l-1.4 8.1h-1.4zM154.4 40l1.4.3c-.3.9-.7 1.6-1.2 2.1-.6.5-1.2.7-2 .7s-1.5-.3-2-.9c-.5-.6-.7-1.5-.7-2.6 0-.9.2-1.8.5-2.5.3-.8.8-1.3 1.3-1.7.6-.4 1.2-.6 1.8-.6.7 0 1.3.2 1.8.7.5.5.7 1.1.8 1.9l-1.4.2c-.1-.5-.2-.8-.4-1-.2-.2-.5-.3-.9-.3s-.8.1-1.1.4c-.3.3-.6.7-.8 1.3-.2.6-.3 1.2-.3 1.8 0 .6.1 1.1.4 1.5.3.4.6.5 1 .5s.7-.1 1-.4c.4-.5.6-.9.8-1.4zM157.8 42.9l1.4-8.1h5.1l-.3 1.4h-3.6L160 38h3.6l-.3 1.3h-3.5l-.4 2.2h3.9l-.2 1.4h-5.3zM165.8 40.2l1.3-.1c0 .5.1.8.2 1 .2.3.6.4 1.1.4.5 0 .8-.1 1-.3.2-.2.3-.4.3-.7 0-.2-.1-.4-.3-.6-.1-.1-.4-.3-1-.6-.5-.3-.9-.5-1.2-.7-.2-.2-.4-.4-.6-.7-.1-.3-.2-.6-.2-1 0-.7.2-1.2.6-1.7.4-.4 1-.7 1.8-.7s1.4.2 1.9.7c.4.4.7 1 .7 1.8l-1.4.1c0-.4-.2-.7-.4-.9-.2-.2-.5-.3-.9-.3s-.7.1-.8.2c-.2.2-.3.4-.3.6 0 .2.1.4.2.6.2.2.5.4 1 .6.8.4 1.3.7 1.5 1 .3.4.5.8.5 1.4 0 .7-.2 1.3-.7 1.8-.5.5-1.1.8-2 .8-.6 0-1.1-.1-1.5-.3-.4-.2-.7-.6-.9-1 .1-.3.1-.8.1-1.4z" class="st2"/></svg>