<svg xmlns="http://www.w3.org/2000/svg" xml:space="preserve" id="Layer_1" width="148.9" height="49.5" x="0" y="0" style="enable-background:new 0 0 148.9 49.5" version="1.1"><style>.st1{fill:#fff}.st2{fill:#0094a3}</style><linearGradient id="SVGID_1_" x1="2.415" x2="44.083" y1="24.249" y2="24.249" gradientUnits="userSpaceOnUse"><stop offset="0" style="stop-color:#008ba2"/><stop offset=".701" style="stop-color:#3ca4ae"/><stop offset=".999" style="stop-color:#30a8b4"/></linearGradient><circle cx="23.2" cy="24.2" r="20.8" style="fill:url(#SVGID_1_)"/><path d="M10.8 26.1c.1-1.8 1.5-3 2.9-3.9 1.7-1.2 3.4-2.3 5.1-3.5 2.7-1.9 5.4-3.7 8.2-5.5l2.4-1.5c1.3-.9 2.6-1.7 3.9-2.6.5-.3 1.1-.7 1.6-1 .2-.1.3-.1.3.2-.2 2.2-.9 4.3-1.7 6.3-.9 2.3-2.1 4.5-3.8 6.4-.4.5-.8.9-1.3 1.2-.5.4-1.1.8-1.6 1.2-1.1.8-2.2 1.5-3.3 2.3-1.6 1.1-3.2 2.2-4.8 3.2-.7.4-1.3.9-2 1.3-.6.4-1.3.9-1.9 1.4-.6.6-1.1 1.4-1.3 2.2 0 .1 0 .1-.1.2 0 0 0 .1-.1.1h-.2s0-.1-.1-.1c-.1-.5-.3-.9-.5-1.4-.2-.5-.3-1-.5-1.5-.2-.7-.5-1.4-.7-2.1-.2-.5-.4-1-.5-1.5.1-.4 0-.9 0-1.4zm3.3.8c0 .4 0 .9.1 1.3 0 .2.1.3.3.1 3.2-2.3 6.6-4.6 9.9-6.8.7-.5 1.3-.9 2-1.4.6-.5 1.3-1 1.8-1.6.6-.6 1-1.2 1.4-1.9.2-.4.4-.8.5-1.2v-.1H30c-.8.6-1.7 1.1-2.5 1.7-.9.6-1.7 1.1-2.6 1.7-.9.6-1.7 1.1-2.6 1.7-.9.6-1.7 1.1-2.6 1.7-1 .6-1.9 1.3-2.9 1.9-1.1.7-2.5 1.3-2.7 2.9zM24.2 28.3c-.1.8-.2 1.6-.6 2.4-.3.5-.7.7-1.1 1-.8.6-1.5 1.1-2.3 1.6-.7.5-1.5 1-2.2 1.5-.4.3-.9.6-1.1 1.1-.2.5-.2 1.1-.2 1.6 0 .2.1.1.2.1.6-.4 1.2-.8 1.9-1.3.6-.4 1.1-.8 1.7-1.1.1 0 .1-.1.2-.1.1.1 0 .2 0 .2-.5.9-1 1.8-1.6 2.7-.7 1.3-1.4 2.5-2.1 3.8-.1.1-.1.2-.2.4 0 .1-.1.1-.2.1s-.1-.1-.1-.1c-.2-.8-.6-1.5-.8-2.3-.2-.7-.5-1.3-.7-2-.2-.6-.5-1.2-.6-1.8-.1-.9.1-1.6.7-2.3.5-.6 1.2-.9 1.8-1.4.7-.5 1.5-1.1 2.3-1.6.8-.6 1.6-1.1 2.4-1.7.8-.5 1.5-1.1 2.3-1.6.1-.1.1-.1.2-.1.1.1.1.2.1.3v.6z" class="st1"/><path d="M23.2 46.5C11 46.5 1 36.5 1 24.2S11 2 23.2 2s22.2 10 22.2 22.2-9.9 22.3-22.2 22.3zm0-44c-12 0-21.8 9.8-21.8 21.8S11.2 46 23.2 46 45 36.3 45 24.2 35.3 2.5 23.2 2.5zM64.4 18.7c1.1 1 1.6 2.3 1.6 3.9s-.5 2.9-1.6 3.9-2.5 1.5-4.3 1.5H56v6.9h-2.1V17.2h6.2c1.7 0 3.2.5 4.3 1.5zm-1.6 6.4c.6-.6 1-1.4 1-2.5s-.3-2-1-2.5c-.6-.6-1.7-.8-3-.8H56V26h3.8c1.3-.1 2.3-.4 3-.9z" class="st2"/><path d="M56.2 35h-2.6V17H60c1.8 0 3.3.5 4.4 1.5 1.1 1 1.7 2.4 1.7 4.1s-.6 3.1-1.7 4.1c-1.1 1-2.6 1.5-4.4 1.5h-3.8V35zm-2.1-.5h1.7v-6.9h4.3c1.7 0 3.1-.5 4.1-1.4 1-.9 1.5-2.2 1.5-3.7s-.5-2.8-1.5-3.7c-1-.9-2.4-1.4-4.1-1.4h-6v17.1zm5.6-8.4h-4V19h4c1.4 0 2.5.3 3.2.9.7.6 1.1 1.5 1.1 2.7 0 1.2-.4 2.1-1.1 2.7-.7.5-1.7.8-3.2.8zm-3.5-.4h3.5c1.3 0 2.3-.3 2.9-.8.6-.5.9-1.3.9-2.3 0-1-.3-1.8-.9-2.3-.6-.5-1.6-.8-2.9-.8h-3.5v6.2zM79 21.5v13.3h-1.9l-.1-2c-.9 1.5-2.5 2.3-4.8 2.3-1.4 0-2.6-.4-3.5-1.2-.9-.8-1.4-2-1.4-3.7v-8.7h2.1v8.1c0 1.3.3 2.2.8 2.8.5.5 1.3.8 2.3.8 1.2 0 2.2-.4 3-1.1.8-.7 1.2-1.9 1.2-3.4v-7.2H79z" class="st2"/><path d="M72.2 35.3c-1.5 0-2.7-.4-3.7-1.3-1-.8-1.4-2.1-1.4-3.8v-8.9h2.6v8.4c0 1.2.2 2.1.7 2.6.5.5 1.2.7 2.2.7 1.2 0 2.1-.3 2.9-1.1.8-.7 1.1-1.8 1.1-3.2v-7.5h2.6V35h-2.3l-.1-1.6c-1 1.2-2.5 1.9-4.6 1.9zm-4.7-13.6v8.5c0 1.6.4 2.8 1.3 3.5.9.8 2 1.1 3.4 1.1 2.2 0 3.7-.7 4.6-2.2l.4-.6.2 2.6h1.4V21.7h-1.7v7c0 1.6-.4 2.7-1.3 3.5-.8.8-1.9 1.2-3.2 1.2-1.1 0-1.9-.3-2.5-.9-.6-.6-.9-1.6-.9-2.9v-7.9h-1.7zM89.4 21.5l-.4 2c-.4-.2-1-.3-1.7-.3-.6 0-1.1.2-1.7.5-.5.3-1 .8-1.3 1.5-.3.7-.5 1.5-.5 2.4v7.2h-2.1V21.5h1.7l.3 2.2c.7-1.6 2.2-2.5 4.3-2.5.6 0 1 .1 1.4.3z" class="st2"/><path d="M84 35h-2.6V21.2h2.2l.2 1.7c.8-1.3 2.2-2 4.1-2 .7 0 1.2.1 1.6.3l.2.1-.5 2.5-.3-.1c-.4-.2-.9-.3-1.6-.3-.5 0-1 .2-1.5.5s-.9.8-1.2 1.4c-.3.6-.5 1.4-.5 2.3V35zm-2.1-.5h1.7v-7c0-1 .2-1.8.5-2.5.4-.7.8-1.2 1.4-1.6.6-.3 1.2-.5 1.8-.5.6 0 1.1.1 1.5.2l.3-1.6c-.3-.1-.7-.2-1.2-.2-2 0-3.3.8-4.1 2.3l-.3.7-.4-2.8h-1.3v13zM101.1 28.9h-10c.1 1.3.6 2.4 1.3 3.1.8.7 1.8 1.1 3 1.1 1 0 1.8-.2 2.4-.5.6-.3 1.1-.8 1.3-1.5l1.8.9c-.5.9-1.2 1.7-2.1 2.2-.9.5-2 .7-3.4.7-2 0-3.6-.6-4.7-1.8-1.1-1.1-1.7-2.8-1.7-5s.5-3.9 1.6-5.1c1.1-1.2 2.6-1.8 4.6-1.8 1.2 0 2.3.3 3.2.8.9.6 1.6 1.3 2 2.2.5.9.7 2 .7 3.2.1.5.1 1 0 1.5zm-8.7-4.8c-.7.7-1.2 1.7-1.3 2.9h8.1c-.1-1.2-.6-2.2-1.2-2.9-.7-.7-1.6-1.1-2.7-1.1-1.2.1-2.2.4-2.9 1.1z" class="st2"/><path d="M95.4 35.3c-2.1 0-3.7-.6-4.9-1.9-1.2-1.3-1.8-3-1.8-5.2s.6-4 1.7-5.2c1.1-1.3 2.7-1.9 4.8-1.9 1.3 0 2.4.3 3.3.9.9.6 1.7 1.4 2.1 2.3.5 1 .7 2.1.7 3.3 0 .5 0 1-.1 1.5v.2h-10c.1 1.2.6 2.1 1.2 2.8.7.7 1.7 1.1 2.8 1.1.9 0 1.7-.2 2.3-.5.6-.3 1-.8 1.2-1.3l.1-.2 2.2 1.2-.1.2c-.5 1-1.3 1.7-2.2 2.2-.7.2-1.9.5-3.3.5zm-.1-13.9c-1.9 0-3.4.6-4.5 1.8-1 1.2-1.6 2.8-1.6 4.9 0 2.1.6 3.8 1.7 4.9 1.1 1.2 2.6 1.8 4.6 1.8 1.3 0 2.4-.2 3.3-.7.8-.4 1.4-1.1 1.9-1.9l-1.4-.7c-.3.6-.7 1-1.3 1.3-.7.4-1.5.5-2.5.5-1.3 0-2.3-.4-3.2-1.2-.8-.8-1.3-1.9-1.4-3.3v-.2H101c.1-.4.1-.8.1-1.3 0-1.1-.2-2.2-.7-3.1-.4-.9-1.1-1.6-2-2.1-.9-.4-1.9-.7-3.1-.7zm4.1 5.9h-8.6V27c.2-1.3.6-2.3 1.4-3.1.8-.7 1.8-1.1 3-1.1s2.1.4 2.9 1.1c.7.7 1.1 1.8 1.3 3v.4zm-8-.5h7.5c-.2-1.1-.5-1.9-1.1-2.5-.6-.7-1.5-1-2.5-1-1.1 0-2 .3-2.7 1-.6.6-1.1 1.4-1.2 2.5zM100.5 21.5h8.7v1.1h-8.7z" class="st2"/><path d="M107.8 15.2c.5 0 .9.1 1.3.2s.7.3.9.5l-.4 1.1c-.2-.2-.5-.4-.7-.5-.3-.1-.6-.1-.9-.1-.9 0-1.5.2-2 .7-.5.5-.7 1.2-.7 2.2v15.4H104V19.2c0-.6.1-1.2.3-1.7.2-.5.4-.9.8-1.3.3-.3.8-.6 1.3-.8.2-.1.7-.2 1.4-.2zM112.1 15.3v16.3c0 .8.1 1.4.4 1.7.3.3.7.5 1.3.5.4 0 .7 0 .9-.1.2-.1.5-.1.8-.3l-.2 1.2c-.2.1-.5.2-.8.3-.3.1-.6.1-1 .1-.9 0-1.6-.3-2.1-.8s-.7-1.4-.7-2.5V15.3h1.4z" class="st2"/><path d="M121 21.2c1.2 0 2.3.3 3.3.8s1.7 1.3 2.2 2.4c.5 1 .8 2.3.8 3.7s-.3 2.7-.8 3.7-1.3 1.8-2.2 2.4c-.9.6-2 .8-3.3.8-1.2 0-2.3-.3-3.3-.8-1-.6-1.7-1.3-2.2-2.4-.5-1-.8-2.3-.8-3.7s.3-2.7.8-3.7 1.3-1.8 2.2-2.4c.9-.5 2-.8 3.3-.8zm0 1.1c-1 0-1.9.2-2.6.7-.7.5-1.3 1.1-1.7 2-.4.9-.6 1.9-.6 3.1 0 1.2.2 2.2.6 3.1.4.9 1 1.5 1.7 2s1.6.7 2.6.7 1.9-.2 2.6-.7c.7-.5 1.3-1.1 1.7-2 .4-.9.6-1.9.6-3.1 0-1.2-.2-2.2-.6-3.1-.4-.9-1-1.5-1.7-2s-1.6-.7-2.6-.7zM145.4 21.5h1.5l-4.5 13.3h-1.3l-4.2-11.6-4.1 11.6h-1.3L127 21.5h1.5l3.8 11.7 4.1-11.7h1.4l4.2 11.7 3.4-11.7z" class="st2"/></svg>