<?xml version="1.0" encoding="utf-8"?>
<!-- Generator: Adobe Illustrator 23.0.3, SVG Export Plug-In . SVG Version: 6.00 Build 0)  -->
<svg version="1.1" id="Layer_1" xmlns="http://www.w3.org/2000/svg" xmlns:xlink="http://www.w3.org/1999/xlink" x="0px" y="0px"
	 width="148.9px" height="49.5px" viewBox="0 0 148.9 49.5" style="enable-background:new 0 0 148.9 49.5;" xml:space="preserve">
<style type="text/css">
	.st0{fill:url(#SVGID_1_);}
	.st1{fill:#FFFFFF;}
	.st2{fill:#0094A3;}
</style>
<g>
	<g>
		<linearGradient id="SVGID_1_" gradientUnits="userSpaceOnUse" x1="2.4152" y1="24.2492" x2="44.083" y2="24.2492">
			<stop  offset="0" style="stop-color:#008BA2"/>
			<stop  offset="0.7014" style="stop-color:#3CA4AE"/>
			<stop  offset="0.9989" style="stop-color:#30A8B4"/>
		</linearGradient>
		<circle class="st0" cx="23.2" cy="24.2" r="20.8"/>
		<g>
			<path class="st1" d="M10.8,26.1c0.1-1.8,1.5-3,2.9-3.9c1.7-1.2,3.4-2.3,5.1-3.5c2.7-1.9,5.4-3.7,8.2-5.5c0.8-0.5,1.6-1,2.4-1.5
				c1.3-0.9,2.6-1.7,3.9-2.6c0.5-0.3,1.1-0.7,1.6-1C35.1,8,35.2,8,35.2,8.3c-0.2,2.2-0.9,4.3-1.7,6.3c-0.9,2.3-2.1,4.5-3.8,6.4
				c-0.4,0.5-0.8,0.9-1.3,1.2c-0.5,0.4-1.1,0.8-1.6,1.2c-1.1,0.8-2.2,1.5-3.3,2.3c-1.6,1.1-3.2,2.2-4.8,3.2c-0.7,0.4-1.3,0.9-2,1.3
				c-0.6,0.4-1.3,0.9-1.9,1.4c-0.6,0.6-1.1,1.4-1.3,2.2c0,0.1,0,0.1-0.1,0.2c0,0,0,0.1-0.1,0.1c0,0-0.1,0-0.2,0c0,0,0-0.1-0.1-0.1
				c-0.1-0.5-0.3-0.9-0.5-1.4c-0.2-0.5-0.3-1-0.5-1.5c-0.2-0.7-0.5-1.4-0.7-2.1c-0.2-0.5-0.4-1-0.5-1.5
				C10.9,27.1,10.8,26.6,10.8,26.1z M14.1,26.9c0,0.4,0,0.9,0.1,1.3c0,0.2,0.1,0.3,0.3,0.1c3.2-2.3,6.6-4.6,9.9-6.8
				c0.7-0.5,1.3-0.9,2-1.4c0.6-0.5,1.3-1,1.8-1.6c0.6-0.6,1-1.2,1.4-1.9c0.2-0.4,0.4-0.8,0.5-1.2c0,0,0-0.1,0-0.1c0,0-0.1,0-0.1,0
				c-0.8,0.6-1.7,1.1-2.5,1.7c-0.9,0.6-1.7,1.1-2.6,1.7c-0.9,0.6-1.7,1.1-2.6,1.7c-0.9,0.6-1.7,1.1-2.6,1.7c-1,0.6-1.9,1.3-2.9,1.9
				C15.7,24.7,14.3,25.3,14.1,26.9z"/>
			<path class="st1" d="M24.2,28.3c-0.1,0.8-0.2,1.6-0.6,2.4c-0.3,0.5-0.7,0.7-1.1,1c-0.8,0.6-1.5,1.1-2.3,1.6
				c-0.7,0.5-1.5,1-2.2,1.5c-0.4,0.3-0.9,0.6-1.1,1.1c-0.2,0.5-0.2,1.1-0.2,1.6c0,0.2,0.1,0.1,0.2,0.1c0.6-0.4,1.2-0.8,1.9-1.3
				c0.6-0.4,1.1-0.8,1.7-1.1c0.1,0,0.1-0.1,0.2-0.1c0.1,0.1,0,0.2,0,0.2c-0.5,0.9-1,1.8-1.6,2.7c-0.7,1.3-1.4,2.5-2.1,3.8
				c-0.1,0.1-0.1,0.2-0.2,0.4c0,0.1-0.1,0.1-0.2,0.1c-0.1,0-0.1-0.1-0.1-0.1c-0.2-0.8-0.6-1.5-0.8-2.3c-0.2-0.7-0.5-1.3-0.7-2
				c-0.2-0.6-0.5-1.2-0.6-1.8c-0.1-0.9,0.1-1.6,0.7-2.3c0.5-0.6,1.2-0.9,1.8-1.4c0.7-0.5,1.5-1.1,2.3-1.6c0.8-0.6,1.6-1.1,2.4-1.7
				c0.8-0.5,1.5-1.1,2.3-1.6c0.1-0.1,0.1-0.1,0.2-0.1c0.1,0.1,0.1,0.2,0.1,0.3C24.2,27.9,24.2,28.1,24.2,28.3z"/>
		</g>
		<g>
			<path class="st2" d="M23.2,46.5C11,46.5,1,36.5,1,24.2S11,2,23.2,2s22.2,10,22.2,22.2S35.5,46.5,23.2,46.5z M23.2,2.5
				c-12,0-21.8,9.8-21.8,21.8S11.2,46,23.2,46S45,36.3,45,24.2S35.3,2.5,23.2,2.5z"/>
		</g>
	</g>
	<g>
		<path class="st2" d="M64.4,18.7c1.1,1,1.6,2.3,1.6,3.9s-0.5,2.9-1.6,3.9c-1.1,1-2.5,1.5-4.3,1.5H56v6.9h-2.1V17.2h6.2
			C61.8,17.2,63.3,17.7,64.4,18.7z M62.8,25.1c0.6-0.6,1-1.4,1-2.5s-0.3-2-1-2.5c-0.6-0.6-1.7-0.8-3-0.8H56v6.7h3.8
			C61.1,25.9,62.1,25.6,62.8,25.1z"/>
		<path class="st2" d="M56.2,35h-2.6V17h6.4c1.8,0,3.3,0.5,4.4,1.5h0c1.1,1,1.7,2.4,1.7,4.1s-0.6,3.1-1.7,4.1
			c-1.1,1-2.6,1.5-4.4,1.5h-3.8V35z M54.1,34.5h1.7v-6.9h4.3c1.7,0,3.1-0.5,4.1-1.4c1-0.9,1.5-2.2,1.5-3.7s-0.5-2.8-1.5-3.7h0
			c-1-0.9-2.4-1.4-4.1-1.4h-6V34.5z M59.7,26.1h-4V19h4c1.4,0,2.5,0.3,3.2,0.9c0.7,0.6,1.1,1.5,1.1,2.7c0,1.2-0.4,2.1-1.1,2.7l0,0
			C62.2,25.8,61.2,26.1,59.7,26.1z M56.2,25.7h3.5c1.3,0,2.3-0.3,2.9-0.8l0,0c0.6-0.5,0.9-1.3,0.9-2.3c0-1-0.3-1.8-0.9-2.3
			c-0.6-0.5-1.6-0.8-2.9-0.8h-3.5V25.7z"/>
	</g>
	<g>
		<path class="st2" d="M79,21.5v13.3h-1.9l-0.1-2c-0.9,1.5-2.5,2.3-4.8,2.3c-1.4,0-2.6-0.4-3.5-1.2c-0.9-0.8-1.4-2-1.4-3.7v-8.7h2.1
			v8.1c0,1.3,0.3,2.2,0.8,2.8c0.5,0.5,1.3,0.8,2.3,0.8c1.2,0,2.2-0.4,3-1.1c0.8-0.7,1.2-1.9,1.2-3.4v-7.2H79z"/>
		<path class="st2" d="M72.2,35.3c-1.5,0-2.7-0.4-3.7-1.3c-1-0.8-1.4-2.1-1.4-3.8v-8.9h2.6v8.4c0,1.2,0.2,2.1,0.7,2.6
			c0.5,0.5,1.2,0.7,2.2,0.7c1.2,0,2.1-0.3,2.9-1.1c0.8-0.7,1.1-1.8,1.1-3.2v-7.5h2.6V35h-2.3l-0.1-1.6
			C75.8,34.6,74.3,35.3,72.2,35.3z M67.5,21.7v8.5c0,1.6,0.4,2.8,1.3,3.5c0.9,0.8,2,1.1,3.4,1.1c2.2,0,3.7-0.7,4.6-2.2l0.4-0.6
			l0.2,2.6h1.4V21.7h-1.7v7c0,1.6-0.4,2.7-1.3,3.5c-0.8,0.8-1.9,1.2-3.2,1.2c-1.1,0-1.9-0.3-2.5-0.9c-0.6-0.6-0.9-1.6-0.9-2.9v-7.9
			H67.5z"/>
	</g>
	<g>
		<path class="st2" d="M89.4,21.5L89,23.5c-0.4-0.2-1-0.3-1.7-0.3c-0.6,0-1.1,0.2-1.7,0.5c-0.5,0.3-1,0.8-1.3,1.5
			c-0.3,0.7-0.5,1.5-0.5,2.4v7.2h-2.1V21.5h1.7l0.3,2.2c0.7-1.6,2.2-2.5,4.3-2.5C88.6,21.2,89,21.3,89.4,21.5z"/>
		<path class="st2" d="M84,35h-2.6V21.2h2.2l0.2,1.7c0.8-1.3,2.2-2,4.1-2c0.7,0,1.2,0.1,1.6,0.3l0.2,0.1l-0.5,2.5l-0.3-0.1
			c-0.4-0.2-0.9-0.3-1.6-0.3c-0.5,0-1,0.2-1.5,0.5c-0.5,0.3-0.9,0.8-1.2,1.4c-0.3,0.6-0.5,1.4-0.5,2.3V35z M81.9,34.5h1.7v-7
			c0-1,0.2-1.8,0.5-2.5c0.4-0.7,0.8-1.2,1.4-1.6c0.6-0.3,1.2-0.5,1.8-0.5c0.6,0,1.1,0.1,1.5,0.2l0.3-1.6c-0.3-0.1-0.7-0.2-1.2-0.2
			c-2,0-3.3,0.8-4.1,2.3l-0.3,0.7l-0.4-2.8h-1.3V34.5z"/>
	</g>
	<g>
		<path class="st2" d="M101.1,28.9h-10c0.1,1.3,0.6,2.4,1.3,3.1c0.8,0.7,1.8,1.1,3,1.1c1,0,1.8-0.2,2.4-0.5c0.6-0.3,1.1-0.8,1.3-1.5
			l1.8,0.9c-0.5,0.9-1.2,1.7-2.1,2.2c-0.9,0.5-2,0.7-3.4,0.7c-2,0-3.6-0.6-4.7-1.8C89.6,32,89,30.3,89,28.1c0-2.2,0.5-3.9,1.6-5.1
			c1.1-1.2,2.6-1.8,4.6-1.8c1.2,0,2.3,0.3,3.2,0.8c0.9,0.6,1.6,1.3,2,2.2c0.5,0.9,0.7,2,0.7,3.2C101.2,27.9,101.2,28.4,101.1,28.9z
			 M92.4,24.1c-0.7,0.7-1.2,1.7-1.3,2.9h8.1c-0.1-1.2-0.6-2.2-1.2-2.9c-0.7-0.7-1.6-1.1-2.7-1.1C94.1,23.1,93.1,23.4,92.4,24.1z"/>
		<path class="st2" d="M95.4,35.3c-2.1,0-3.7-0.6-4.9-1.9c-1.2-1.3-1.8-3-1.8-5.2c0-2.2,0.6-4,1.7-5.2c1.1-1.3,2.7-1.9,4.8-1.9
			c1.3,0,2.4,0.3,3.3,0.9c0.9,0.6,1.7,1.4,2.1,2.3c0.5,1,0.7,2.1,0.7,3.3c0,0.5,0,1-0.1,1.5l0,0.2h-10c0.1,1.2,0.6,2.1,1.2,2.8
			c0.7,0.7,1.7,1.1,2.8,1.1c0.9,0,1.7-0.2,2.3-0.5c0.6-0.3,1-0.8,1.2-1.3l0.1-0.2l2.2,1.2l-0.1,0.2c-0.5,1-1.3,1.7-2.2,2.2
			C98,35,96.8,35.3,95.4,35.3z M95.3,21.4c-1.9,0-3.4,0.6-4.5,1.8c-1,1.2-1.6,2.8-1.6,4.9c0,2.1,0.6,3.8,1.7,4.9
			c1.1,1.2,2.6,1.8,4.6,1.8c1.3,0,2.4-0.2,3.3-0.7c0.8-0.4,1.4-1.1,1.9-1.9l-1.4-0.7c-0.3,0.6-0.7,1-1.3,1.3
			c-0.7,0.4-1.5,0.5-2.5,0.5c-1.3,0-2.3-0.4-3.2-1.2c-0.8-0.8-1.3-1.9-1.4-3.3l0-0.2h10.1c0.1-0.4,0.1-0.8,0.1-1.3
			c0-1.1-0.2-2.2-0.7-3.1c-0.4-0.9-1.1-1.6-2-2.1C97.5,21.7,96.5,21.4,95.3,21.4z M99.4,27.3h-8.6l0-0.3c0.2-1.3,0.6-2.3,1.4-3.1
			l0,0c0.8-0.7,1.8-1.1,3-1.1c1.2,0,2.1,0.4,2.9,1.1c0.7,0.7,1.1,1.8,1.3,3L99.4,27.3z M91.4,26.8h7.5c-0.2-1.1-0.5-1.9-1.1-2.5
			c-0.6-0.7-1.5-1-2.5-1c-1.1,0-2,0.3-2.7,1l0,0C92,24.9,91.5,25.7,91.4,26.8z"/>
	</g>
	<g>
		<rect x="100.5" y="21.5" class="st2" width="8.7" height="1.1"/>
		<path class="st2" d="M107.8,15.2c0.5,0,0.9,0.1,1.3,0.2c0.4,0.1,0.7,0.3,0.9,0.5l-0.4,1.1c-0.2-0.2-0.5-0.4-0.7-0.5
			c-0.3-0.1-0.6-0.1-0.9-0.1c-0.9,0-1.5,0.2-2,0.7c-0.5,0.5-0.7,1.2-0.7,2.2v2.1v0.5v12.8h-1.3V19.2c0-0.6,0.1-1.2,0.3-1.7
			c0.2-0.5,0.4-0.9,0.8-1.3c0.3-0.3,0.8-0.6,1.3-0.8C106.6,15.3,107.1,15.2,107.8,15.2z"/>
	</g>
	<path class="st2" d="M112.1,15.3v16.3c0,0.8,0.1,1.4,0.4,1.7c0.3,0.3,0.7,0.5,1.3,0.5c0.4,0,0.7,0,0.9-0.1c0.2-0.1,0.5-0.1,0.8-0.3
		l-0.2,1.2c-0.2,0.1-0.5,0.2-0.8,0.3c-0.3,0.1-0.6,0.1-1,0.1c-0.9,0-1.6-0.3-2.1-0.8c-0.5-0.5-0.7-1.4-0.7-2.5V15.3H112.1z"/>
	<path class="st2" d="M121,21.2c1.2,0,2.3,0.3,3.3,0.8s1.7,1.3,2.2,2.4c0.5,1,0.8,2.3,0.8,3.7s-0.3,2.7-0.8,3.7
		c-0.5,1-1.3,1.8-2.2,2.4c-0.9,0.6-2,0.8-3.3,0.8c-1.2,0-2.3-0.3-3.3-0.8c-1-0.6-1.7-1.3-2.2-2.4c-0.5-1-0.8-2.3-0.8-3.7
		s0.3-2.7,0.8-3.7c0.5-1,1.3-1.8,2.2-2.4C118.6,21.5,119.7,21.2,121,21.2z M121,22.3c-1,0-1.9,0.2-2.6,0.7c-0.7,0.5-1.3,1.1-1.7,2
		c-0.4,0.9-0.6,1.9-0.6,3.1c0,1.2,0.2,2.2,0.6,3.1c0.4,0.9,1,1.5,1.7,2c0.7,0.5,1.6,0.7,2.6,0.7s1.9-0.2,2.6-0.7
		c0.7-0.5,1.3-1.1,1.7-2c0.4-0.9,0.6-1.9,0.6-3.1c0-1.2-0.2-2.2-0.6-3.1c-0.4-0.9-1-1.5-1.7-2S122,22.3,121,22.3z"/>
	<path class="st2" d="M145.4,21.5h1.5l-4.5,13.3h-1.3l-4.2-11.6l-4.1,11.6h-1.3l-4.5-13.3h1.5l3.8,11.7l4.1-11.7h1.4l4.2,11.7
		L145.4,21.5z"/>
</g>
</svg>
