<?xml version="1.0" encoding="UTF-8"?> <!-- Generator: Adobe Illustrator 25.2.3, SVG Export Plug-In . SVG Version: 6.00 Build 0) --> <svg xmlns="http://www.w3.org/2000/svg" xmlns:xlink="http://www.w3.org/1999/xlink" version="1.1" id="Layer_1" x="0px" y="0px" viewBox="0 0 173.7 52.5" style="enable-background:new 0 0 173.7 52.5;" xml:space="preserve"> <style type="text/css"> .st0{fill:#FFFFFF;} .st1{fill:url(#SVGID_1_);} .st2{fill:#99A4B5;} .st3{fill:url(#SVGID_2_);} .st4{fill:#001C46;} .st5{fill:url(#SVGID_3_);} .st6{fill:url(#SVGID_4_);} .st7{fill:#231F20;} .st8{fill:#BCBDBD;} .st9{fill:url(#SVGID_5_);} .st10{fill:url(#SVGID_6_);} .st11{fill:url(#SVGID_7_);} .st12{fill:url(#SVGID_8_);} .st13{fill:url(#SVGID_9_);} .st14{fill:#006EE5;} .st15{fill:#A6DBFB;} </style> <g> <g> <path class="st4" d="M3.5,17.6h3.2v5.9h3.5v3.2H6.7v8.5c0,0.6,0.2,1.1,0.6,1.5s0.9,0.6,1.5,0.6c0.4,0,0.8-0.1,1.2-0.2 c0.2,0,0.4-0.1,0.6-0.2V40c-0.2,0.1-0.4,0.1-0.7,0.2c-0.5,0.1-1.1,0.2-1.8,0.2c-1.6,0-2.8-0.4-3.6-1.3c-0.8-0.9-1.3-2.1-1.3-3.8 v-8.6H0v-3.2h1.8c0.5,0,1-0.2,1.3-0.6c0.3-0.4,0.5-0.9,0.5-1.7V17.6z"></path> <path class="st4" d="M23.5,40.3v-1.9c-0.4,0.4-0.9,0.7-1.4,1c-0.4,0.2-1,0.5-1.6,0.7s-1.3,0.3-2.1,0.3c-0.9,0-1.7-0.1-2.4-0.4 c-0.7-0.3-1.3-0.6-1.9-1.1c-0.5-0.4-0.9-0.9-1.2-1.5c-0.3-0.6-0.4-1.1-0.4-1.7c0-1.3,0.4-2.4,1.3-3.3c0.9-0.9,2.1-1.4,3.6-1.7 l6.1-1c0-0.9-0.3-1.6-1-2.2c-0.6-0.6-1.5-0.9-2.5-0.9c-0.7,0-1.4,0.1-1.9,0.4c-0.5,0.2-1,0.5-1.4,0.8c-0.4,0.3-0.8,0.7-1.1,1.1 l-2.3-2.2c0.5-0.6,1-1.1,1.7-1.6c0.6-0.4,1.2-0.8,2.1-1.1c0.8-0.3,1.8-0.5,2.9-0.5c1.1,0,2,0.2,2.9,0.5c0.9,0.3,1.6,0.8,2.2,1.3 c0.6,0.6,1.1,1.2,1.4,2c0.3,0.8,0.5,1.6,0.5,2.4v10.7H23.5z M19,37.2c1.4,0,2.5-0.4,3.3-1.2c0.8-0.8,1.2-1.9,1.2-3.4v-0.3 l-5.4,0.8c-0.6,0.1-1.1,0.3-1.5,0.7c-0.4,0.4-0.6,0.8-0.6,1.4c0,0.5,0.2,1,0.8,1.4C17.3,37,18,37.2,19,37.2z"></path> <path class="st4" d="M52.7,30.7c0-1.4-0.3-2.4-1-3.1c-0.6-0.7-1.5-1-2.5-1c-1,0-2,0.4-2.7,1.2c-0.8,0.8-1.1,2-1.1,3.6v8.9h-3.5 v-9.6c0-1.4-0.3-2.4-1-3.1c-0.6-0.7-1.5-1-2.5-1c-1.1,0-2,0.4-2.7,1.2c-0.8,0.8-1.1,2-1.1,3.6v8.9H31V23.5h3.5v2 c0.4-0.4,0.8-0.7,1.2-1c0.4-0.2,0.9-0.5,1.4-0.7c0.6-0.2,1.2-0.3,1.9-0.3c0.9,0,1.7,0.1,2.3,0.4c0.7,0.3,1.2,0.6,1.6,0.9 c0.5,0.4,0.9,0.9,1.2,1.4c0.4-0.5,0.9-1,1.4-1.4c0.5-0.3,1.1-0.7,1.8-0.9c0.7-0.3,1.6-0.4,2.6-0.4c1.9,0,3.5,0.6,4.6,1.8 c1.1,1.2,1.7,3,1.7,5.4v9.6h-3.5V30.7z"></path> <path class="st4" d="M69.3,23.5c1.1,0,2.1,0.2,3.1,0.7c1,0.4,1.9,1,2.6,1.8c0.8,0.8,1.4,1.6,1.8,2.7c0.4,1,0.7,2.1,0.7,3.3 c0,1.2-0.2,2.3-0.7,3.3s-1,1.9-1.8,2.7c-0.8,0.8-1.6,1.3-2.6,1.8c-1,0.4-2,0.7-3.1,0.7c-0.8,0-1.6-0.1-2.3-0.3s-1.2-0.5-1.7-0.7 c-0.6-0.3-1-0.7-1.5-1.1v2.1h-3.5V15.8h3.5v9.9c0.4-0.4,0.9-0.8,1.5-1.1c0.5-0.3,1-0.5,1.7-0.8C67.7,23.6,68.4,23.5,69.3,23.5z M68.9,37.2c0.7,0,1.3-0.1,1.9-0.4c0.6-0.3,1.1-0.6,1.6-1.1c0.5-0.5,0.9-1,1.1-1.7s0.4-1.3,0.4-2.1c0-0.7-0.1-1.4-0.4-2.1 c-0.3-0.6-0.7-1.2-1.1-1.7c-0.5-0.5-1-0.8-1.6-1.1c-0.6-0.3-1.2-0.4-1.9-0.4S67.6,26.8,67,27c-0.6,0.3-1.1,0.6-1.6,1.1 s-0.9,1-1.1,1.7c-0.3,0.6-0.4,1.3-0.4,2.1c0,0.8,0.1,1.4,0.4,2.1s0.7,1.2,1.1,1.7c0.5,0.5,1,0.8,1.6,1.1 C67.6,37.1,68.2,37.2,68.9,37.2z"></path> <path class="st4" d="M79.3,31.9c0-1.1,0.2-2.2,0.7-3.2c0.5-1,1.1-1.9,1.9-2.7c0.8-0.8,1.7-1.4,2.8-1.8c1-0.5,2.2-0.7,3.4-0.7 s2.3,0.2,3.4,0.7c1,0.4,2,1.1,2.8,1.8c0.8,0.8,1.4,1.7,1.9,2.7c0.5,1,0.7,2.1,0.7,3.2c0,1.1-0.2,2.2-0.7,3.2 c-0.5,1-1.1,1.9-1.9,2.7c-0.8,0.8-1.7,1.4-2.8,1.8c-1.1,0.5-2.2,0.7-3.4,0.7s-2.3-0.2-3.4-0.7c-1.1-0.4-2-1.1-2.8-1.8 c-0.8-0.8-1.4-1.7-1.9-2.7C79.6,34.1,79.3,33.1,79.3,31.9z M93.3,31.9c0-0.7-0.1-1.4-0.4-2.1c-0.3-0.6-0.7-1.2-1.2-1.7 c-0.5-0.5-1-0.8-1.7-1.1c-0.6-0.3-1.3-0.4-2-0.4s-1.4,0.1-2,0.4c-0.6,0.3-1.2,0.6-1.7,1.1s-0.9,1-1.2,1.7 c-0.3,0.6-0.4,1.3-0.4,2.1c0,0.8,0.1,1.4,0.4,2.1s0.7,1.2,1.2,1.7c0.5,0.5,1,0.8,1.7,1.1c0.6,0.3,1.3,0.4,2,0.4s1.4-0.1,2-0.4 c0.6-0.3,1.2-0.6,1.7-1.1c0.5-0.5,0.9-1,1.2-1.7C93.2,33.4,93.3,32.7,93.3,31.9z"></path> <path class="st4" d="M108.7,26.8c-0.1,0-0.3-0.1-0.5-0.1c-0.2,0-0.4-0.1-0.6-0.1c-1.3,0-2.4,0.4-3.2,1.2c-0.8,0.8-1.2,2-1.2,3.6 v8.9h-3.5V23.5h3.5v2c0.4-0.4,0.9-0.7,1.4-1c0.4-0.2,1-0.5,1.6-0.7c0.6-0.2,1.3-0.3,2.1-0.3h0.9v3.4 C109,26.9,108.9,26.8,108.7,26.8z"></path> <path class="st4" d="M121.1,40.3v-1.9c-0.4,0.4-0.9,0.7-1.4,1c-0.4,0.2-1,0.5-1.6,0.7s-1.3,0.3-2.1,0.3c-0.9,0-1.7-0.1-2.4-0.4 c-0.7-0.3-1.3-0.6-1.9-1.1c-0.5-0.4-0.9-0.9-1.2-1.5c-0.3-0.6-0.4-1.1-0.4-1.7c0-1.3,0.4-2.4,1.3-3.3c0.9-0.9,2.1-1.4,3.6-1.7 l6.1-1c0-0.9-0.3-1.6-1-2.2c-0.6-0.6-1.5-0.9-2.5-0.9c-0.7,0-1.4,0.1-1.9,0.4c-0.5,0.2-1,0.5-1.4,0.8c-0.4,0.3-0.8,0.7-1.1,1.1 l-2.3-2.2c0.5-0.6,1-1.1,1.7-1.6c0.6-0.4,1.2-0.8,2.1-1.1c0.8-0.3,1.8-0.5,2.9-0.5c1.1,0,2,0.2,2.9,0.5c0.9,0.3,1.6,0.8,2.2,1.3 c0.6,0.6,1.1,1.2,1.4,2c0.3,0.8,0.5,1.6,0.5,2.4v10.7H121.1z M116.5,37.2c1.4,0,2.5-0.4,3.3-1.2c0.8-0.8,1.2-1.9,1.2-3.4v-0.3 l-5.4,0.8c-0.6,0.1-1.1,0.3-1.5,0.7c-0.4,0.4-0.6,0.8-0.6,1.4c0,0.5,0.2,1,0.8,1.4C114.8,37,115.6,37.2,116.5,37.2z"></path> <path class="st4" d="M132.1,25.5c0.4-0.4,0.9-0.7,1.4-1c0.4-0.2,1-0.5,1.6-0.7c0.6-0.2,1.3-0.3,2.1-0.3c1,0,1.9,0.2,2.8,0.5 c0.8,0.3,1.6,0.8,2.2,1.4c0.6,0.6,1.1,1.4,1.4,2.3c0.3,0.9,0.5,1.9,0.5,3v9.6h-3.5v-9.6c0-1.2-0.4-2.2-1.2-3 c-0.8-0.8-1.7-1.1-2.9-1.1c-1.3,0-2.4,0.4-3.2,1.2c-0.8,0.8-1.2,2-1.2,3.6v8.9h-3.5V23.5h3.5V25.5z"></path> </g> <g> <path class="st4" d="M3.2,46.4h2.6c0.3,0,0.5,0,0.8,0.1C6.7,46.7,7,46.8,7.1,47c0.2,0.2,0.3,0.4,0.4,0.6c0.1,0.2,0.1,0.5,0.1,0.7 c0,0.3-0.1,0.6-0.2,0.9c-0.1,0.2-0.3,0.4-0.4,0.6c-0.2,0.2-0.4,0.3-0.6,0.4l1.4,2.4h-1l-1.3-2.4H4.1v2.4h-1V46.4z M6.7,48.3 c0-0.1,0-0.3-0.1-0.4c-0.1-0.1-0.1-0.2-0.2-0.3c-0.1-0.1-0.2-0.2-0.3-0.2c-0.1-0.1-0.3-0.1-0.4-0.1H4.1v2h1.6c0.1,0,0.3,0,0.4-0.1 c0.1-0.1,0.2-0.1,0.3-0.2c0.1-0.1,0.2-0.2,0.2-0.3C6.7,48.6,6.7,48.4,6.7,48.3z"></path> <path class="st4" d="M13.6,51.7v0.9H9.2v-6.1h4.3v0.9h-3.4v1.6h2.7v0.9h-2.7v1.9H13.6z"></path> <path class="st4" d="M17.9,50.7c0-0.2,0-0.3-0.1-0.4c-0.1-0.1-0.2-0.2-0.4-0.3c-0.2-0.1-0.3-0.1-0.5-0.2c-0.2-0.1-0.4-0.1-0.6-0.2 c-0.2-0.1-0.4-0.1-0.6-0.2c-0.2-0.1-0.4-0.2-0.5-0.3c-0.2-0.1-0.3-0.3-0.4-0.5c-0.1-0.2-0.1-0.4-0.1-0.7c0-0.2,0-0.4,0.1-0.6 c0.1-0.2,0.2-0.4,0.4-0.5c0.2-0.1,0.4-0.3,0.6-0.3c0.3-0.1,0.5-0.1,0.8-0.1c0.3,0,0.6,0,0.8,0.1c0.2,0.1,0.4,0.2,0.6,0.3 c0.2,0.1,0.3,0.2,0.5,0.4l-0.6,0.6c-0.1-0.1-0.2-0.2-0.3-0.3c-0.1-0.1-0.2-0.1-0.4-0.2c-0.2-0.1-0.3-0.1-0.5-0.1 c-0.2,0-0.3,0-0.4,0.1c-0.1,0-0.2,0.1-0.3,0.2c-0.1,0.1-0.2,0.2-0.2,0.2c0,0.1-0.1,0.2-0.1,0.3c0,0.2,0,0.3,0.1,0.4 c0.1,0.1,0.2,0.2,0.4,0.3c0.2,0.1,0.3,0.1,0.5,0.2c0.2,0.1,0.4,0.1,0.6,0.2c0.2,0.1,0.4,0.1,0.6,0.2c0.2,0.1,0.4,0.2,0.5,0.3 c0.2,0.1,0.3,0.3,0.4,0.5c0.1,0.2,0.1,0.4,0.1,0.7c0,0.3,0,0.5-0.1,0.7c-0.1,0.2-0.2,0.4-0.4,0.6c-0.2,0.2-0.4,0.3-0.7,0.4 c-0.3,0.1-0.6,0.1-0.9,0.1c-0.4,0-0.7,0-1-0.1c-0.3-0.1-0.5-0.2-0.7-0.3c-0.2-0.1-0.4-0.3-0.5-0.5l0.6-0.6 c0.1,0.1,0.2,0.2,0.4,0.3c0.1,0.1,0.3,0.2,0.5,0.2c0.2,0.1,0.4,0.1,0.7,0.1c0.4,0,0.7-0.1,0.9-0.3C17.8,51.2,17.9,51,17.9,50.7z"></path> <path class="st4" d="M19.8,49.5c0-0.4,0.1-0.8,0.2-1.2s0.4-0.7,0.7-1c0.3-0.3,0.6-0.5,1-0.7s0.8-0.2,1.3-0.2 c0.5,0,0.9,0.1,1.3,0.2c0.4,0.2,0.7,0.4,1,0.7c0.3,0.3,0.5,0.6,0.7,1c0.2,0.4,0.2,0.8,0.2,1.2c0,0.4-0.1,0.8-0.2,1.2 c-0.2,0.4-0.4,0.7-0.7,1c-0.3,0.3-0.6,0.5-1,0.7c-0.4,0.2-0.8,0.2-1.3,0.2c-0.5,0-0.9-0.1-1.3-0.2c-0.4-0.2-0.7-0.4-1-0.7 c-0.3-0.3-0.5-0.6-0.7-1S19.8,49.9,19.8,49.5z M20.7,49.5c0,0.3,0.1,0.6,0.2,0.9c0.1,0.3,0.3,0.5,0.5,0.7c0.2,0.2,0.4,0.4,0.7,0.5 c0.3,0.1,0.6,0.2,0.9,0.2c0.3,0,0.6-0.1,0.9-0.2c0.3-0.1,0.5-0.3,0.7-0.5s0.4-0.4,0.5-0.7c0.1-0.3,0.2-0.6,0.2-0.9 c0-0.3-0.1-0.6-0.2-0.9c-0.1-0.3-0.3-0.5-0.5-0.7c-0.2-0.2-0.4-0.4-0.7-0.5c-0.3-0.1-0.6-0.2-0.9-0.2c-0.3,0-0.6,0.1-0.9,0.2 c-0.3,0.1-0.5,0.3-0.7,0.5c-0.2,0.2-0.4,0.4-0.5,0.7C20.8,48.9,20.7,49.2,20.7,49.5z"></path> <path class="st4" d="M30.1,51.7c0.2,0,0.4,0,0.6-0.1s0.4-0.2,0.5-0.3c0.1-0.1,0.3-0.3,0.3-0.5c0.1-0.2,0.1-0.4,0.1-0.6v-3.6h1V50 c0,0.3-0.1,0.7-0.2,1c-0.1,0.3-0.3,0.6-0.5,0.8c-0.2,0.2-0.5,0.4-0.8,0.5c-0.3,0.1-0.7,0.2-1,0.2c-0.4,0-0.7-0.1-1-0.2 c-0.3-0.1-0.6-0.3-0.8-0.5c-0.2-0.2-0.4-0.5-0.5-0.8c-0.1-0.3-0.2-0.6-0.2-1v-3.6h1V50c0,0.2,0,0.4,0.1,0.6 c0.1,0.2,0.2,0.4,0.3,0.5c0.1,0.1,0.3,0.3,0.5,0.3C29.7,51.6,29.9,51.7,30.1,51.7z"></path> <path class="st4" d="M34.4,46.4h2.6c0.3,0,0.5,0,0.8,0.1c0.2,0.1,0.4,0.2,0.6,0.4c0.2,0.2,0.3,0.4,0.4,0.6 c0.1,0.2,0.1,0.5,0.1,0.7c0,0.3-0.1,0.6-0.2,0.9c-0.1,0.2-0.3,0.4-0.4,0.6c-0.2,0.2-0.4,0.3-0.6,0.4l1.4,2.4h-1l-1.3-2.4h-1.4v2.4 h-1V46.4z M37.9,48.3c0-0.1,0-0.3-0.1-0.4c-0.1-0.1-0.1-0.2-0.2-0.3c-0.1-0.1-0.2-0.2-0.3-0.2c-0.1-0.1-0.3-0.1-0.4-0.1h-1.6v2 h1.6c0.1,0,0.3,0,0.4-0.1c0.1-0.1,0.2-0.1,0.3-0.2c0.1-0.1,0.2-0.2,0.2-0.3C37.9,48.6,37.9,48.4,37.9,48.3z"></path> <path class="st4" d="M43.2,46.4c0.4,0,0.8,0.1,1.1,0.2c0.3,0.1,0.6,0.3,0.8,0.4c0.2,0.2,0.4,0.4,0.6,0.6l-0.6,0.6 c-0.1-0.2-0.3-0.3-0.5-0.5c-0.2-0.1-0.4-0.2-0.6-0.3c-0.2-0.1-0.5-0.1-0.8-0.1c-0.3,0-0.6,0.1-0.9,0.2c-0.3,0.1-0.5,0.3-0.7,0.5 c-0.2,0.2-0.4,0.4-0.5,0.7c-0.1,0.3-0.2,0.6-0.2,0.9c0,0.3,0.1,0.6,0.2,0.9c0.1,0.3,0.3,0.5,0.5,0.7s0.4,0.4,0.7,0.5 c0.3,0.1,0.6,0.2,0.9,0.2c0.3,0,0.6,0,0.8-0.1c0.2-0.1,0.4-0.2,0.6-0.3c0.2-0.1,0.4-0.3,0.5-0.5l0.6,0.6c-0.2,0.2-0.4,0.4-0.6,0.6 c-0.2,0.1-0.5,0.3-0.8,0.4c-0.3,0.1-0.7,0.2-1.1,0.2c-0.5,0-0.9-0.1-1.3-0.2c-0.4-0.2-0.7-0.4-1-0.7c-0.3-0.3-0.5-0.6-0.7-1 S40,49.9,40,49.5c0-0.4,0.1-0.8,0.2-1.2s0.4-0.7,0.7-1c0.3-0.3,0.6-0.5,1-0.7S42.8,46.4,43.2,46.4z"></path> <path class="st4" d="M51.3,51.7v0.9h-4.4v-6.1h4.3v0.9h-3.4v1.6h2.7v0.9h-2.7v1.9H51.3z"></path> <path class="st4" d="M55.6,50.7c0-0.2,0-0.3-0.1-0.4c-0.1-0.1-0.2-0.2-0.4-0.3c-0.2-0.1-0.3-0.1-0.5-0.2c-0.2-0.1-0.4-0.1-0.6-0.2 c-0.2-0.1-0.4-0.1-0.6-0.2c-0.2-0.1-0.4-0.2-0.5-0.3c-0.2-0.1-0.3-0.3-0.4-0.5c-0.1-0.2-0.1-0.4-0.1-0.7c0-0.2,0-0.4,0.1-0.6 c0.1-0.2,0.2-0.4,0.4-0.5c0.2-0.1,0.4-0.3,0.6-0.3c0.3-0.1,0.5-0.1,0.8-0.1c0.3,0,0.6,0,0.8,0.1c0.2,0.1,0.4,0.2,0.6,0.3 c0.2,0.1,0.3,0.2,0.5,0.4l-0.6,0.6c-0.1-0.1-0.2-0.2-0.3-0.3c-0.1-0.1-0.2-0.1-0.4-0.2c-0.2-0.1-0.3-0.1-0.5-0.1 c-0.2,0-0.3,0-0.4,0.1s-0.2,0.1-0.3,0.2c-0.1,0.1-0.2,0.2-0.2,0.2c0,0.1-0.1,0.2-0.1,0.3c0,0.2,0,0.3,0.1,0.4 c0.1,0.1,0.2,0.2,0.4,0.3c0.2,0.1,0.3,0.1,0.5,0.2c0.2,0.1,0.4,0.1,0.6,0.2c0.2,0.1,0.4,0.1,0.6,0.2c0.2,0.1,0.4,0.2,0.5,0.3 c0.2,0.1,0.3,0.3,0.4,0.5c0.1,0.2,0.1,0.4,0.1,0.7c0,0.3,0,0.5-0.1,0.7c-0.1,0.2-0.2,0.4-0.4,0.6c-0.2,0.2-0.4,0.3-0.7,0.4 c-0.3,0.1-0.6,0.1-0.9,0.1c-0.4,0-0.7,0-1-0.1c-0.3-0.1-0.5-0.2-0.7-0.3c-0.2-0.1-0.4-0.3-0.5-0.5l0.6-0.6 c0.1,0.1,0.2,0.2,0.4,0.3c0.1,0.1,0.3,0.2,0.5,0.2c0.2,0.1,0.4,0.1,0.7,0.1c0.4,0,0.7-0.1,0.9-0.3C55.5,51.2,55.6,51,55.6,50.7z"></path> </g> <radialGradient id="SVGID_1_" cx="167.0143" cy="8.0452" r="18.2033" gradientUnits="userSpaceOnUse"> <stop offset="0" style="stop-color:#FFFFFB"></stop> <stop offset="9.077168e-02" style="stop-color:#F5FBFB"></stop> <stop offset="0.2427" style="stop-color:#DCF1FB"></stop> <stop offset="0.436" style="stop-color:#B2E0FB"></stop> <stop offset="0.4853" style="stop-color:#A6DBFB"></stop> <stop offset="0.5467" style="stop-color:#9BD4FA"></stop> <stop offset="0.6533" style="stop-color:#7FC1F6"></stop> <stop offset="0.7923" style="stop-color:#51A3F0"></stop> <stop offset="0.9568" style="stop-color:#127AE7"></stop> <stop offset="1" style="stop-color:#006EE5"></stop> </radialGradient> <circle class="st1" cx="161.9" cy="11.7" r="11.7"></circle> </g> </svg> 