<svg xmlns="http://www.w3.org/2000/svg" xml:space="preserve" id="Layer_1" x="0" y="0" style="enable-background:new 0 0 173.7 52.5" version="1.1" viewBox="0 0 173.7 52.5"><style>.st4{fill:#001c46}</style><path d="M3.5 17.6h3.2v5.9h3.5v3.2H6.7v8.5c0 .6.2 1.1.6 1.5s.9.6 1.5.6c.4 0 .8-.1 1.2-.2.2 0 .4-.1.6-.2V40c-.2.1-.4.1-.7.2-.5.1-1.1.2-1.8.2-1.6 0-2.8-.4-3.6-1.3-.8-.9-1.3-2.1-1.3-3.8v-8.6H0v-3.2h1.8c.5 0 1-.2 1.3-.6.3-.4.5-.9.5-1.7v-3.6zM23.5 40.3v-1.9c-.4.4-.9.7-1.4 1-.4.2-1 .5-1.6.7s-1.3.3-2.1.3c-.9 0-1.7-.1-2.4-.4-.7-.3-1.3-.6-1.9-1.1-.5-.4-.9-.9-1.2-1.5-.3-.6-.4-1.1-.4-1.7 0-1.3.4-2.4 1.3-3.3.9-.9 2.1-1.4 3.6-1.7l6.1-1c0-.9-.3-1.6-1-2.2-.6-.6-1.5-.9-2.5-.9-.7 0-1.4.1-1.9.4-.5.2-1 .5-1.4.8-.4.3-.8.7-1.1 1.1l-2.3-2.2c.5-.6 1-1.1 1.7-1.6.6-.4 1.2-.8 2.1-1.1.8-.3 1.8-.5 2.9-.5 1.1 0 2 .2 2.9.5.9.3 1.6.8 2.2 1.3.6.6 1.1 1.2 1.4 2 .3.8.5 1.6.5 2.4v10.7h-3.5zM19 37.2c1.4 0 2.5-.4 3.3-1.2.8-.8 1.2-1.9 1.2-3.4v-.3l-5.4.8c-.6.1-1.1.3-1.5.7-.4.4-.6.8-.6 1.4 0 .5.2 1 .8 1.4.5.4 1.2.6 2.2.6zM52.7 30.7c0-1.4-.3-2.4-1-3.1-.6-.7-1.5-1-2.5-1s-2 .4-2.7 1.2c-.8.8-1.1 2-1.1 3.6v8.9h-3.5v-9.6c0-1.4-.3-2.4-1-3.1-.6-.7-1.5-1-2.5-1-1.1 0-2 .4-2.7 1.2-.8.8-1.1 2-1.1 3.6v8.9H31V23.5h3.5v2c.4-.4.8-.7 1.2-1 .4-.2.9-.5 1.4-.7.6-.2 1.2-.3 1.9-.3.9 0 1.7.1 2.3.4.7.3 1.2.6 1.6.9.5.4.9.9 1.2 1.4.4-.5.9-1 1.4-1.4.5-.3 1.1-.7 1.8-.9.7-.3 1.6-.4 2.6-.4 1.9 0 3.5.6 4.6 1.8 1.1 1.2 1.7 3 1.7 5.4v9.6h-3.5v-9.6zM69.3 23.5c1.1 0 2.1.2 3.1.7 1 .4 1.9 1 2.6 1.8.8.8 1.4 1.6 1.8 2.7.4 1 .7 2.1.7 3.3 0 1.2-.2 2.3-.7 3.3s-1 1.9-1.8 2.7c-.8.8-1.6 1.3-2.6 1.8-1 .4-2 .7-3.1.7-.8 0-1.6-.1-2.3-.3s-1.2-.5-1.7-.7c-.6-.3-1-.7-1.5-1.1v2.1h-3.5V15.8h3.5v9.9c.4-.4.9-.8 1.5-1.1.5-.3 1-.5 1.7-.8.7-.2 1.4-.3 2.3-.3zm-.4 13.7c.7 0 1.3-.1 1.9-.4.6-.3 1.1-.6 1.6-1.1.5-.5.9-1 1.1-1.7s.4-1.3.4-2.1c0-.7-.1-1.4-.4-2.1-.3-.6-.7-1.2-1.1-1.7-.5-.5-1-.8-1.6-1.1-.6-.3-1.2-.4-1.9-.4s-1.3.2-1.9.4c-.6.3-1.1.6-1.6 1.1s-.9 1-1.1 1.7c-.3.6-.4 1.3-.4 2.1s.1 1.4.4 2.1.7 1.2 1.1 1.7c.5.5 1 .8 1.6 1.1.6.3 1.2.4 1.9.4zM79.3 31.9c0-1.1.2-2.2.7-3.2.5-1 1.1-1.9 1.9-2.7.8-.8 1.7-1.4 2.8-1.8 1-.5 2.2-.7 3.4-.7s2.3.2 3.4.7c1 .4 2 1.1 2.8 1.8.8.8 1.4 1.7 1.9 2.7.5 1 .7 2.1.7 3.2s-.2 2.2-.7 3.2c-.5 1-1.1 1.9-1.9 2.7-.8.8-1.7 1.4-2.8 1.8-1.1.5-2.2.7-3.4.7s-2.3-.2-3.4-.7c-1.1-.4-2-1.1-2.8-1.8-.8-.8-1.4-1.7-1.9-2.7-.4-1-.7-2-.7-3.2zm14 0c0-.7-.1-1.4-.4-2.1-.3-.6-.7-1.2-1.2-1.7s-1-.8-1.7-1.1c-.6-.3-1.3-.4-2-.4s-1.4.1-2 .4c-.6.3-1.2.6-1.7 1.1s-.9 1-1.2 1.7c-.3.6-.4 1.3-.4 2.1s.1 1.4.4 2.1.7 1.2 1.2 1.7 1 .8 1.7 1.1c.6.3 1.3.4 2 .4s1.4-.1 2-.4c.6-.3 1.2-.6 1.7-1.1.5-.5.9-1 1.2-1.7.3-.6.4-1.3.4-2.1zM108.7 26.8c-.1 0-.3-.1-.5-.1s-.4-.1-.6-.1c-1.3 0-2.4.4-3.2 1.2-.8.8-1.2 2-1.2 3.6v8.9h-3.5V23.5h3.5v2c.4-.4.9-.7 1.4-1 .4-.2 1-.5 1.6-.7.6-.2 1.3-.3 2.1-.3h.9v3.4c-.2 0-.3-.1-.5-.1zM121.1 40.3v-1.9c-.4.4-.9.7-1.4 1-.4.2-1 .5-1.6.7s-1.3.3-2.1.3c-.9 0-1.7-.1-2.4-.4-.7-.3-1.3-.6-1.9-1.1-.5-.4-.9-.9-1.2-1.5-.3-.6-.4-1.1-.4-1.7 0-1.3.4-2.4 1.3-3.3.9-.9 2.1-1.4 3.6-1.7l6.1-1c0-.9-.3-1.6-1-2.2-.6-.6-1.5-.9-2.5-.9-.7 0-1.4.1-1.9.4-.5.2-1 .5-1.4.8-.4.3-.8.7-1.1 1.1l-2.3-2.2c.5-.6 1-1.1 1.7-1.6.6-.4 1.2-.8 2.1-1.1.8-.3 1.8-.5 2.9-.5 1.1 0 2 .2 2.9.5.9.3 1.6.8 2.2 1.3.6.6 1.1 1.2 1.4 2 .3.8.5 1.6.5 2.4v10.7h-3.5zm-4.6-3.1c1.4 0 2.5-.4 3.3-1.2.8-.8 1.2-1.9 1.2-3.4v-.3l-5.4.8c-.6.1-1.1.3-1.5.7-.4.4-.6.8-.6 1.4 0 .5.2 1 .8 1.4.5.4 1.3.6 2.2.6zM132.1 25.5c.4-.4.9-.7 1.4-1 .4-.2 1-.5 1.6-.7.6-.2 1.3-.3 2.1-.3 1 0 1.9.2 2.8.5.8.3 1.6.8 2.2 1.4.6.6 1.1 1.4 1.4 2.3.3.9.5 1.9.5 3v9.6h-3.5v-9.6c0-1.2-.4-2.2-1.2-3-.8-.8-1.7-1.1-2.9-1.1-1.3 0-2.4.4-3.2 1.2-.8.8-1.2 2-1.2 3.6v8.9h-3.5V23.5h3.5v2zM3.2 46.4h2.6c.3 0 .5 0 .8.1.1.2.4.3.5.5.2.2.3.4.4.6.1.2.1.5.1.7 0 .3-.1.6-.2.9-.1.2-.3.4-.4.6-.2.2-.4.3-.6.4l1.4 2.4h-1l-1.3-2.4H4.1v2.4h-1v-6.2zm3.5 1.9c0-.1 0-.3-.1-.4-.1-.1-.1-.2-.2-.3-.1-.1-.2-.2-.3-.2-.1-.1-.3-.1-.4-.1H4.1v2h1.6c.1 0 .3 0 .4-.1.1-.1.2-.1.3-.2.1-.1.2-.2.2-.3.1-.1.1-.3.1-.4zM13.6 51.7v.9H9.2v-6.1h4.3v.9h-3.4V49h2.7v.9h-2.7v1.9h3.5zM17.9 50.7c0-.2 0-.3-.1-.4-.1-.1-.2-.2-.4-.3-.2-.1-.3-.1-.5-.2s-.4-.1-.6-.2c-.2-.1-.4-.1-.6-.2-.2-.1-.4-.2-.5-.3-.2-.1-.3-.3-.4-.5-.1-.2-.1-.4-.1-.7 0-.2 0-.4.1-.6.1-.2.2-.4.4-.5.2-.1.4-.3.6-.3.3-.1.5-.1.8-.1.3 0 .6 0 .8.1l.6.3c.2.1.3.2.5.4l-.6.6-.3-.3c-.1-.1-.2-.1-.4-.2s-.3-.1-.5-.1-.3 0-.4.1c-.1 0-.2.1-.3.2l-.2.2c0 .1-.1.2-.1.3 0 .2 0 .3.1.4.1.1.2.2.4.3.2.1.3.1.5.2s.4.1.6.2c.2.1.4.1.6.2.2.1.4.2.5.3.2.1.3.3.4.5.1.2.1.4.1.7 0 .3 0 .5-.1.7-.1.2-.2.4-.4.6-.2.2-.4.3-.7.4-.3.1-.6.1-.9.1-.4 0-.7 0-1-.1-.3-.1-.5-.2-.7-.3-.2-.1-.4-.3-.5-.5l.6-.6c.1.1.2.2.4.3.1.1.3.2.5.2.2.1.4.1.7.1.4 0 .7-.1.9-.3.1-.2.2-.4.2-.7zM19.8 49.5c0-.4.1-.8.2-1.2s.4-.7.7-1c.3-.3.6-.5 1-.7s.8-.2 1.3-.2.9.1 1.3.2c.4.2.7.4 1 .7.3.3.5.6.7 1 .2.4.2.8.2 1.2 0 .4-.1.8-.2 1.2-.2.4-.4.7-.7 1-.3.3-.6.5-1 .7-.4.2-.8.2-1.3.2s-.9-.1-1.3-.2c-.4-.2-.7-.4-1-.7-.3-.3-.5-.6-.7-1s-.2-.8-.2-1.2zm.9 0c0 .3.1.6.2.9.1.3.3.5.5.7.2.2.4.4.7.5.3.1.6.2.9.2.3 0 .6-.1.9-.2.3-.1.5-.3.7-.5s.4-.4.5-.7c.1-.3.2-.6.2-.9 0-.3-.1-.6-.2-.9-.1-.3-.3-.5-.5-.7-.2-.2-.4-.4-.7-.5-.3-.1-.6-.2-.9-.2-.3 0-.6.1-.9.2-.3.1-.5.3-.7.5-.2.2-.4.4-.5.7-.1.3-.2.6-.2.9zM30.1 51.7c.2 0 .4 0 .6-.1s.4-.2.5-.3c.1-.1.3-.3.3-.5.1-.2.1-.4.1-.6v-3.6h1V50c0 .3-.1.7-.2 1-.1.3-.3.6-.5.8-.2.2-.5.4-.8.5-.3.1-.7.2-1 .2-.4 0-.7-.1-1-.2-.3-.1-.6-.3-.8-.5-.2-.2-.4-.5-.5-.8-.1-.3-.2-.6-.2-1v-3.6h1V50c0 .2 0 .4.1.6.1.2.2.4.3.5.1.1.3.3.5.3.2.2.4.3.6.3zM34.4 46.4H37c.3 0 .5 0 .8.1.2.1.4.2.6.4.2.2.3.4.4.6.1.2.1.5.1.7 0 .3-.1.6-.2.9-.1.2-.3.4-.4.6-.2.2-.4.3-.6.4l1.4 2.4h-1l-1.3-2.4h-1.4v2.4h-1v-6.1zm3.5 1.9c0-.1 0-.3-.1-.4-.1-.1-.1-.2-.2-.3-.1-.1-.2-.2-.3-.2-.1-.1-.3-.1-.4-.1h-1.6v2h1.6c.1 0 .3 0 .4-.1.1-.1.2-.1.3-.2.1-.1.2-.2.2-.3.1-.1.1-.3.1-.4zM43.2 46.4c.4 0 .8.1 1.1.2.3.1.6.3.8.4l.6.6-.6.6c-.1-.2-.3-.3-.5-.5l-.6-.3c-.2-.1-.5-.1-.8-.1-.3 0-.6.1-.9.2-.3.1-.5.3-.7.5-.2.2-.4.4-.5.7-.1.3-.2.6-.2.9 0 .3.1.6.2.9.1.3.3.5.5.7s.4.4.7.5c.3.1.6.2.9.2.3 0 .6 0 .8-.1l.6-.3c.2-.1.4-.3.5-.5l.6.6-.6.6c-.2.1-.5.3-.8.4-.3.1-.7.2-1.1.2-.5 0-.9-.1-1.3-.2-.4-.2-.7-.4-1-.7-.3-.3-.5-.6-.7-1s-.2-1-.2-1.4c0-.4.1-.8.2-1.2s.4-.7.7-1c.3-.3.6-.5 1-.7s.9-.2 1.3-.2zM51.3 51.7v.9h-4.4v-6.1h4.3v.9h-3.4V49h2.7v.9h-2.7v1.9h3.5zM55.6 50.7c0-.2 0-.3-.1-.4-.1-.1-.2-.2-.4-.3-.2-.1-.3-.1-.5-.2s-.4-.1-.6-.2c-.2-.1-.4-.1-.6-.2-.2-.1-.4-.2-.5-.3-.2-.1-.3-.3-.4-.5-.1-.2-.1-.4-.1-.7 0-.2 0-.4.1-.6.1-.2.2-.4.4-.5.2-.1.4-.3.6-.3.3-.1.5-.1.8-.1.3 0 .6 0 .8.1l.6.3c.2.1.3.2.5.4l-.6.6-.3-.3c-.1-.1-.2-.1-.4-.2s-.3-.1-.5-.1-.3 0-.4.1-.2.1-.3.2l-.2.2c0 .1-.1.2-.1.3 0 .2 0 .3.1.4.1.1.2.2.4.3.2.1.3.1.5.2s.4.1.6.2c.2.1.4.1.6.2.2.1.4.2.5.3.2.1.3.3.4.5.1.2.1.4.1.7 0 .3 0 .5-.1.7-.1.2-.2.4-.4.6-.2.2-.4.3-.7.4-.3.1-.6.1-.9.1-.4 0-.7 0-1-.1-.3-.1-.5-.2-.7-.3-.2-.1-.4-.3-.5-.5l.6-.6c.1.1.2.2.4.3.1.1.3.2.5.2.2.1.4.1.7.1.4 0 .7-.1.9-.3.1-.2.2-.4.2-.7z" class="st4"/><radialGradient id="SVGID_1_" cx="167.014" cy="8.045" r="18.203" gradientUnits="userSpaceOnUse"><stop offset="0" style="stop-color:#fffffb"/><stop offset=".091" style="stop-color:#f5fbfb"/><stop offset=".243" style="stop-color:#dcf1fb"/><stop offset=".436" style="stop-color:#b2e0fb"/><stop offset=".485" style="stop-color:#a6dbfb"/><stop offset=".547" style="stop-color:#9bd4fa"/><stop offset=".653" style="stop-color:#7fc1f6"/><stop offset=".792" style="stop-color:#51a3f0"/><stop offset=".957" style="stop-color:#127ae7"/><stop offset="1" style="stop-color:#006ee5"/></radialGradient><circle cx="161.9" cy="11.7" r="11.7" style="fill:url(#SVGID_1_)"/></svg>