<?xml version="1.0" encoding="UTF-8"?>
<svg xmlns="http://www.w3.org/2000/svg" xmlns:xlink="http://www.w3.org/1999/xlink" width="180px" height="60px" viewBox="0 0 145 60" version="1.1">
<g id="surface1">
<path style=" stroke:none;fill-rule:nonzero;fill:rgb(0%,0%,0%);fill-opacity:1;" d="M 28.984375 47.125 L 23.710938 47.125 L 23.710938 17.773438 L 17.109375 17.773438 L 17.109375 12.898438 L 35.636719 12.898438 L 35.636719 17.773438 L 28.984375 17.773438 L 28.984375 47.125 M 57.949219 17.773438 L 47.765625 17.773438 L 47.765625 26.804688 L 55.289062 26.804688 L 55.289062 31.679688 L 47.765625 31.679688 L 47.765625 42.25 L 57.949219 42.25 L 57.949219 47.125 L 42.496094 47.125 L 42.496094 12.898438 L 57.949219 12.898438 L 57.949219 17.773438 M 70.027344 42.25 L 80.519531 42.25 L 80.519531 47.125 L 64.753906 47.125 L 64.753906 12.898438 L 70.027344 12.898438 L 70.027344 42.25 M 102.421875 17.773438 L 92.238281 17.773438 L 92.238281 26.804688 L 99.761719 26.804688 L 99.761719 31.679688 L 92.238281 31.679688 L 92.238281 42.25 L 102.421875 42.25 L 102.421875 47.125 L 86.964844 47.125 L 86.964844 12.898438 L 102.421875 12.898438 L 102.421875 17.773438 M 114.34375 36.144531 C 114.34375 38.863281 114.5 39.789062 115.011719 40.8125 C 115.625 41.945312 116.902344 42.660156 118.386719 42.660156 C 119.871094 42.660156 121.152344 41.945312 121.765625 40.8125 C 122.328125 39.738281 122.429688 38.914062 122.429688 36.144531 L 122.429688 23.878906 C 122.429688 21.109375 122.328125 20.285156 121.765625 19.210938 C 121.152344 18.082031 119.871094 17.363281 118.386719 17.363281 C 116.902344 17.363281 115.625 18.082031 115.011719 19.210938 C 114.5 20.234375 114.34375 21.160156 114.34375 23.878906 Z M 127.703125 36.246094 C 127.703125 40.097656 127.136719 42.40625 125.757812 44.355469 C 124.222656 46.511719 121.664062 47.640625 118.386719 47.640625 C 115.113281 47.640625 112.554688 46.511719 111.019531 44.355469 C 109.636719 42.40625 109.074219 40.097656 109.074219 36.246094 L 109.074219 23.777344 C 109.074219 19.929688 109.636719 17.617188 111.019531 15.667969 C 112.554688 13.511719 115.113281 12.382812 118.386719 12.382812 C 121.664062 12.382812 124.222656 13.511719 125.757812 15.667969 C 127.136719 17.617188 127.703125 19.929688 127.703125 23.777344 L 127.703125 36.246094 "/>
<path style=" stroke:none;fill-rule:nonzero;fill:rgb(0%,0%,0%);fill-opacity:1;" d="M 3.53125 56.480469 L 141.28125 56.480469 L 141.28125 3.542969 L 3.53125 3.542969 Z M 144.8125 60.023438 L 0 60.023438 L 0 0 L 144.8125 0 L 144.8125 60.023438 "/>
</g>
</svg>
