<svg xmlns="http://www.w3.org/2000/svg" width="180" height="60" viewBox="0 0 145 60"><path d="M28.984 47.125h-5.273V17.773h-6.602v-4.875h18.528v4.875h-6.653v29.352M57.95 17.773H47.766v9.032h7.523v4.875h-7.523v10.57h10.183v4.875H42.496V12.898H57.95v4.875M70.027 42.25H80.52v4.875H64.754V12.898h5.273V42.25m32.395-24.477H92.238v9.032h7.524v4.875h-7.524v10.57h10.184v4.875H86.965V12.898h15.457v4.875m11.922 18.372c0 2.718.156 3.644.668 4.667.613 1.133 1.89 1.848 3.375 1.848 1.484 0 2.765-.715 3.379-1.847.562-1.075.664-1.899.664-4.668V23.879c0-2.77-.102-3.594-.664-4.668-.614-1.129-1.895-1.848-3.38-1.848-1.484 0-2.761.719-3.374 1.848-.512 1.023-.668 1.95-.668 4.668Zm13.36.101c0 3.852-.567 6.16-1.946 8.11-1.535 2.156-4.094 3.285-7.371 3.285-3.274 0-5.832-1.13-7.367-3.286-1.383-1.949-1.946-4.257-1.946-8.109V23.777c0-3.847.563-6.16 1.946-8.109 1.535-2.156 4.093-3.285 7.367-3.285 3.277 0 5.836 1.129 7.37 3.285 1.38 1.95 1.946 4.262 1.946 8.11v12.468" style="stroke:none;fill-rule:nonzero;fill:#000;fill-opacity:1"/><path d="M3.531 56.48h137.75V3.543H3.531Zm141.281 3.543H0V0h144.813v60.023" style="stroke:none;fill-rule:nonzero;fill:#000;fill-opacity:1"/></svg>